<?xml version="1.0" encoding="utf-8" standalone="no"?>
<!DOCTYPE svg PUBLIC "-//W3C//DTD SVG 1.1//EN"
  "http://www.w3.org/Graphics/SVG/1.1/DTD/svg11.dtd">
<!-- Created with matplotlib (https://matplotlib.org/) -->
<svg height="345.6pt" version="1.1" viewBox="0 0 460.8 345.6" width="460.8pt" xmlns="http://www.w3.org/2000/svg" xmlns:xlink="http://www.w3.org/1999/xlink">
 <defs>
  <style type="text/css">
*{stroke-linecap:butt;stroke-linejoin:round;}
  </style>
 </defs>
 <g id="figure_1">
  <g id="patch_1">
   <path d="M 0 345.6 
L 460.8 345.6 
L 460.8 0 
L 0 0 
z
" style="fill:#ffffff;"/>
  </g>
  <g id="axes_1">
   <g id="patch_2">
    <path d="M 57.6 307.584 
L 414.72 307.584 
L 414.72 41.472 
L 57.6 41.472 
z
" style="fill:#ffffff;"/>
   </g>
   <g id="PathCollection_1">
    <defs>
     <path d="M 0 0.353553 
C 0.093763 0.353553 0.183699 0.316301 0.25 0.25 
C 0.316301 0.183699 0.353553 0.093763 0.353553 0 
C 0.353553 -0.093763 0.316301 -0.183699 0.25 -0.25 
C 0.183699 -0.316301 0.093763 -0.353553 0 -0.353553 
C -0.093763 -0.353553 -0.183699 -0.316301 -0.25 -0.25 
C -0.316301 -0.183699 -0.353553 -0.093763 -0.353553 0 
C -0.353553 0.093763 -0.316301 0.183699 -0.25 0.25 
C -0.183699 0.316301 -0.093763 0.353553 0 0.353553 
z
" id="C0_0_23d94e9935"/>
    </defs>
    <g clip-path="url(#peeacd0b11a)">
     <use style="fill:#0b0000;stroke:#0b0000;" x="74.087086" xlink:href="#C0_0_23d94e9935" y="295.467033"/>
    </g>
    <g clip-path="url(#peeacd0b11a)">
     <use style="fill:#fffff7;stroke:#fffff7;" x="74.087086" xlink:href="#C0_0_23d94e9935" y="293.630421"/>
    </g>
   </g>
   <g id="PathCollection_2">
    <defs>
     <path d="M 0 0.353553 
C 0.093763 0.353553 0.183699 0.316301 0.25 0.25 
C 0.316301 0.183699 0.353553 0.093763 0.353553 0 
C 0.353553 -0.093763 0.316301 -0.183699 0.25 -0.25 
C 0.183699 -0.316301 0.093763 -0.353553 0 -0.353553 
C -0.093763 -0.353553 -0.183699 -0.316301 -0.25 -0.25 
C -0.316301 -0.183699 -0.353553 -0.093763 -0.353553 0 
C -0.353553 0.093763 -0.316301 0.183699 -0.25 0.25 
C -0.183699 0.316301 -0.093763 0.353553 0 0.353553 
z
" id="C1_0_9b3b7258cf"/>
    </defs>
    <g clip-path="url(#peeacd0b11a)">
     <use style="fill:#0b0000;stroke:#0b0000;" x="80.702307" xlink:href="#C1_0_9b3b7258cf" y="295.467033"/>
    </g>
    <g clip-path="url(#peeacd0b11a)">
     <use style="fill:#fffff7;stroke:#fffff7;" x="80.702307" xlink:href="#C1_0_9b3b7258cf" y="293.630421"/>
    </g>
   </g>
   <g id="PathCollection_3">
    <defs>
     <path d="M 0 0.353553 
C 0.093763 0.353553 0.183699 0.316301 0.25 0.25 
C 0.316301 0.183699 0.353553 0.093763 0.353553 0 
C 0.353553 -0.093763 0.316301 -0.183699 0.25 -0.25 
C 0.183699 -0.316301 0.093763 -0.353553 0 -0.353553 
C -0.093763 -0.353553 -0.183699 -0.316301 -0.25 -0.25 
C -0.316301 -0.183699 -0.353553 -0.093763 -0.353553 0 
C -0.353553 0.093763 -0.316301 0.183699 -0.25 0.25 
C -0.183699 0.316301 -0.093763 0.353553 0 0.353553 
z
" id="C2_0_bd6648597d"/>
    </defs>
    <g clip-path="url(#peeacd0b11a)">
     <use style="fill:#0b0000;stroke:#0b0000;" x="87.317528" xlink:href="#C2_0_bd6648597d" y="295.467033"/>
    </g>
    <g clip-path="url(#peeacd0b11a)">
     <use style="fill:#ffffb4;stroke:#ffffb4;" x="87.317528" xlink:href="#C2_0_bd6648597d" y="293.630421"/>
    </g>
   </g>
   <g id="PathCollection_4">
    <defs>
     <path d="M 0 0.353553 
C 0.093763 0.353553 0.183699 0.316301 0.25 0.25 
C 0.316301 0.183699 0.353553 0.093763 0.353553 0 
C 0.353553 -0.093763 0.316301 -0.183699 0.25 -0.25 
C 0.183699 -0.316301 0.093763 -0.353553 0 -0.353553 
C -0.093763 -0.353553 -0.183699 -0.316301 -0.25 -0.25 
C -0.316301 -0.183699 -0.353553 -0.093763 -0.353553 0 
C -0.353553 0.093763 -0.316301 0.183699 -0.25 0.25 
C -0.183699 0.316301 -0.093763 0.353553 0 0.353553 
z
" id="C3_0_d9792152d5"/>
    </defs>
    <g clip-path="url(#peeacd0b11a)">
     <use style="fill:#0b0000;stroke:#0b0000;" x="93.932749" xlink:href="#C3_0_d9792152d5" y="295.467033"/>
    </g>
    <g clip-path="url(#peeacd0b11a)">
     <use style="fill:#fffff7;stroke:#fffff7;" x="93.932749" xlink:href="#C3_0_d9792152d5" y="293.630421"/>
    </g>
   </g>
   <g id="PathCollection_5">
    <defs>
     <path d="M 0 0.353553 
C 0.093763 0.353553 0.183699 0.316301 0.25 0.25 
C 0.316301 0.183699 0.353553 0.093763 0.353553 0 
C 0.353553 -0.093763 0.316301 -0.183699 0.25 -0.25 
C 0.183699 -0.316301 0.093763 -0.353553 0 -0.353553 
C -0.093763 -0.353553 -0.183699 -0.316301 -0.25 -0.25 
C -0.316301 -0.183699 -0.353553 -0.093763 -0.353553 0 
C -0.353553 0.093763 -0.316301 0.183699 -0.25 0.25 
C -0.183699 0.316301 -0.093763 0.353553 0 0.353553 
z
" id="C4_0_e3023e9a66"/>
    </defs>
    <g clip-path="url(#peeacd0b11a)">
     <use style="fill:#0b0000;stroke:#0b0000;" x="100.54797" xlink:href="#C4_0_e3023e9a66" y="295.467033"/>
    </g>
    <g clip-path="url(#peeacd0b11a)">
     <use style="fill:#ffffd8;stroke:#ffffd8;" x="100.54797" xlink:href="#C4_0_e3023e9a66" y="293.630421"/>
    </g>
   </g>
   <g id="PathCollection_6">
    <defs>
     <path d="M 0 0.353553 
C 0.093763 0.353553 0.183699 0.316301 0.25 0.25 
C 0.316301 0.183699 0.353553 0.093763 0.353553 0 
C 0.353553 -0.093763 0.316301 -0.183699 0.25 -0.25 
C 0.183699 -0.316301 0.093763 -0.353553 0 -0.353553 
C -0.093763 -0.353553 -0.183699 -0.316301 -0.25 -0.25 
C -0.316301 -0.183699 -0.353553 -0.093763 -0.353553 0 
C -0.353553 0.093763 -0.316301 0.183699 -0.25 0.25 
C -0.183699 0.316301 -0.093763 0.353553 0 0.353553 
z
" id="C5_0_c88f16498d"/>
    </defs>
    <g clip-path="url(#peeacd0b11a)">
     <use style="fill:#0b0000;stroke:#0b0000;" x="107.163191" xlink:href="#C5_0_c88f16498d" y="295.467033"/>
    </g>
    <g clip-path="url(#peeacd0b11a)">
     <use style="fill:#ffffa8;stroke:#ffffa8;" x="107.163191" xlink:href="#C5_0_c88f16498d" y="293.630421"/>
    </g>
   </g>
   <g id="PathCollection_7">
    <defs>
     <path d="M 0 0.353553 
C 0.093763 0.353553 0.183699 0.316301 0.25 0.25 
C 0.316301 0.183699 0.353553 0.093763 0.353553 0 
C 0.353553 -0.093763 0.316301 -0.183699 0.25 -0.25 
C 0.183699 -0.316301 0.093763 -0.353553 0 -0.353553 
C -0.093763 -0.353553 -0.183699 -0.316301 -0.25 -0.25 
C -0.316301 -0.183699 -0.353553 -0.093763 -0.353553 0 
C -0.353553 0.093763 -0.316301 0.183699 -0.25 0.25 
C -0.183699 0.316301 -0.093763 0.353553 0 0.353553 
z
" id="C6_0_9b7dac348e"/>
    </defs>
    <g clip-path="url(#peeacd0b11a)">
     <use style="fill:#0b0000;stroke:#0b0000;" x="113.778412" xlink:href="#C6_0_9b7dac348e" y="295.467033"/>
    </g>
    <g clip-path="url(#peeacd0b11a)">
     <use style="fill:#ffff91;stroke:#ffff91;" x="113.778412" xlink:href="#C6_0_9b7dac348e" y="293.630421"/>
    </g>
   </g>
   <g id="PathCollection_8">
    <defs>
     <path d="M 0 0.353553 
C 0.093763 0.353553 0.183699 0.316301 0.25 0.25 
C 0.316301 0.183699 0.353553 0.093763 0.353553 0 
C 0.353553 -0.093763 0.316301 -0.183699 0.25 -0.25 
C 0.183699 -0.316301 0.093763 -0.353553 0 -0.353553 
C -0.093763 -0.353553 -0.183699 -0.316301 -0.25 -0.25 
C -0.316301 -0.183699 -0.353553 -0.093763 -0.353553 0 
C -0.353553 0.093763 -0.316301 0.183699 -0.25 0.25 
C -0.183699 0.316301 -0.093763 0.353553 0 0.353553 
z
" id="C7_0_db160f81cd"/>
    </defs>
    <g clip-path="url(#peeacd0b11a)">
     <use style="fill:#0b0000;stroke:#0b0000;" x="120.393633" xlink:href="#C7_0_db160f81cd" y="295.467033"/>
    </g>
    <g clip-path="url(#peeacd0b11a)">
     <use style="fill:#ffffb4;stroke:#ffffb4;" x="120.393633" xlink:href="#C7_0_db160f81cd" y="293.630421"/>
    </g>
   </g>
   <g id="PathCollection_9">
    <defs>
     <path d="M 0 0.353553 
C 0.093763 0.353553 0.183699 0.316301 0.25 0.25 
C 0.316301 0.183699 0.353553 0.093763 0.353553 0 
C 0.353553 -0.093763 0.316301 -0.183699 0.25 -0.25 
C 0.183699 -0.316301 0.093763 -0.353553 0 -0.353553 
C -0.093763 -0.353553 -0.183699 -0.316301 -0.25 -0.25 
C -0.316301 -0.183699 -0.353553 -0.093763 -0.353553 0 
C -0.353553 0.093763 -0.316301 0.183699 -0.25 0.25 
C -0.183699 0.316301 -0.093763 0.353553 0 0.353553 
z
" id="C8_0_c1ecb0b89f"/>
    </defs>
    <g clip-path="url(#peeacd0b11a)">
     <use style="fill:#0b0000;stroke:#0b0000;" x="127.008854" xlink:href="#C8_0_c1ecb0b89f" y="295.467033"/>
    </g>
    <g clip-path="url(#peeacd0b11a)">
     <use style="fill:#ffff79;stroke:#ffff79;" x="127.008854" xlink:href="#C8_0_c1ecb0b89f" y="293.630421"/>
    </g>
   </g>
   <g id="PathCollection_10">
    <defs>
     <path d="M 0 0.353553 
C 0.093763 0.353553 0.183699 0.316301 0.25 0.25 
C 0.316301 0.183699 0.353553 0.093763 0.353553 0 
C 0.353553 -0.093763 0.316301 -0.183699 0.25 -0.25 
C 0.183699 -0.316301 0.093763 -0.353553 0 -0.353553 
C -0.093763 -0.353553 -0.183699 -0.316301 -0.25 -0.25 
C -0.316301 -0.183699 -0.353553 -0.093763 -0.353553 0 
C -0.353553 0.093763 -0.316301 0.183699 -0.25 0.25 
C -0.183699 0.316301 -0.093763 0.353553 0 0.353553 
z
" id="C9_0_4caaa9624f"/>
    </defs>
    <g clip-path="url(#peeacd0b11a)">
     <use style="fill:#0b0000;stroke:#0b0000;" x="133.624075" xlink:href="#C9_0_4caaa9624f" y="295.467033"/>
    </g>
    <g clip-path="url(#peeacd0b11a)">
     <use style="fill:#ffff5e;stroke:#ffff5e;" x="133.624075" xlink:href="#C9_0_4caaa9624f" y="293.630421"/>
    </g>
   </g>
   <g id="PathCollection_11">
    <defs>
     <path d="M 0 0.353553 
C 0.093763 0.353553 0.183699 0.316301 0.25 0.25 
C 0.316301 0.183699 0.353553 0.093763 0.353553 0 
C 0.353553 -0.093763 0.316301 -0.183699 0.25 -0.25 
C 0.183699 -0.316301 0.093763 -0.353553 0 -0.353553 
C -0.093763 -0.353553 -0.183699 -0.316301 -0.25 -0.25 
C -0.316301 -0.183699 -0.353553 -0.093763 -0.353553 0 
C -0.353553 0.093763 -0.316301 0.183699 -0.25 0.25 
C -0.183699 0.316301 -0.093763 0.353553 0 0.353553 
z
" id="Ca_0_7895a70e3e"/>
    </defs>
    <g clip-path="url(#peeacd0b11a)">
     <use style="fill:#0b0000;stroke:#0b0000;" x="140.239296" xlink:href="#Ca_0_7895a70e3e" y="295.467033"/>
    </g>
    <g clip-path="url(#peeacd0b11a)">
     <use style="fill:#ffff5e;stroke:#ffff5e;" x="140.239296" xlink:href="#Ca_0_7895a70e3e" y="293.630421"/>
    </g>
   </g>
   <g id="PathCollection_12">
    <defs>
     <path d="M 0 0.353553 
C 0.093763 0.353553 0.183699 0.316301 0.25 0.25 
C 0.316301 0.183699 0.353553 0.093763 0.353553 0 
C 0.353553 -0.093763 0.316301 -0.183699 0.25 -0.25 
C 0.183699 -0.316301 0.093763 -0.353553 0 -0.353553 
C -0.093763 -0.353553 -0.183699 -0.316301 -0.25 -0.25 
C -0.316301 -0.183699 -0.353553 -0.093763 -0.353553 0 
C -0.353553 0.093763 -0.316301 0.183699 -0.25 0.25 
C -0.183699 0.316301 -0.093763 0.353553 0 0.353553 
z
" id="Cb_0_e9cc130a42"/>
    </defs>
    <g clip-path="url(#peeacd0b11a)">
     <use style="fill:#0b0000;stroke:#0b0000;" x="146.854517" xlink:href="#Cb_0_e9cc130a42" y="295.467033"/>
    </g>
    <g clip-path="url(#peeacd0b11a)">
     <use style="fill:#ffe900;stroke:#ffe900;" x="146.854517" xlink:href="#Cb_0_e9cc130a42" y="293.630421"/>
    </g>
    <g clip-path="url(#peeacd0b11a)">
     <use style="fill:#fffff3;stroke:#fffff3;" x="146.854517" xlink:href="#Cb_0_e9cc130a42" y="291.793809"/>
    </g>
   </g>
   <g id="PathCollection_13">
    <defs>
     <path d="M 0 0.353553 
C 0.093763 0.353553 0.183699 0.316301 0.25 0.25 
C 0.316301 0.183699 0.353553 0.093763 0.353553 0 
C 0.353553 -0.093763 0.316301 -0.183699 0.25 -0.25 
C 0.183699 -0.316301 0.093763 -0.353553 0 -0.353553 
C -0.093763 -0.353553 -0.183699 -0.316301 -0.25 -0.25 
C -0.316301 -0.183699 -0.353553 -0.093763 -0.353553 0 
C -0.353553 0.093763 -0.316301 0.183699 -0.25 0.25 
C -0.183699 0.316301 -0.093763 0.353553 0 0.353553 
z
" id="Cc_0_86f8a4021d"/>
    </defs>
    <g clip-path="url(#peeacd0b11a)">
     <use style="fill:#0b0000;stroke:#0b0000;" x="153.469738" xlink:href="#Cc_0_86f8a4021d" y="295.467033"/>
    </g>
    <g clip-path="url(#peeacd0b11a)">
     <use style="fill:#ffffeb;stroke:#ffffeb;" x="153.469738" xlink:href="#Cc_0_86f8a4021d" y="291.793809"/>
    </g>
    <g clip-path="url(#peeacd0b11a)">
     <use style="fill:#ffff9d;stroke:#ffff9d;" x="153.469738" xlink:href="#Cc_0_86f8a4021d" y="293.630421"/>
    </g>
   </g>
   <g id="PathCollection_14">
    <defs>
     <path d="M 0 0.353553 
C 0.093763 0.353553 0.183699 0.316301 0.25 0.25 
C 0.316301 0.183699 0.353553 0.093763 0.353553 0 
C 0.353553 -0.093763 0.316301 -0.183699 0.25 -0.25 
C 0.183699 -0.316301 0.093763 -0.353553 0 -0.353553 
C -0.093763 -0.353553 -0.183699 -0.316301 -0.25 -0.25 
C -0.316301 -0.183699 -0.353553 -0.093763 -0.353553 0 
C -0.353553 0.093763 -0.316301 0.183699 -0.25 0.25 
C -0.183699 0.316301 -0.093763 0.353553 0 0.353553 
z
" id="Cd_0_18584b669e"/>
    </defs>
    <g clip-path="url(#peeacd0b11a)">
     <use style="fill:#0b0000;stroke:#0b0000;" x="160.084959" xlink:href="#Cd_0_18584b669e" y="295.467033"/>
    </g>
    <g clip-path="url(#peeacd0b11a)">
     <use style="fill:#ffff56;stroke:#ffff56;" x="160.084959" xlink:href="#Cd_0_18584b669e" y="293.630421"/>
    </g>
    <g clip-path="url(#peeacd0b11a)">
     <use style="fill:#ffffdc;stroke:#ffffdc;" x="160.084959" xlink:href="#Cd_0_18584b669e" y="291.793809"/>
    </g>
   </g>
   <g id="PathCollection_15">
    <defs>
     <path d="M 0 0.353553 
C 0.093763 0.353553 0.183699 0.316301 0.25 0.25 
C 0.316301 0.183699 0.353553 0.093763 0.353553 0 
C 0.353553 -0.093763 0.316301 -0.183699 0.25 -0.25 
C 0.183699 -0.316301 0.093763 -0.353553 0 -0.353553 
C -0.093763 -0.353553 -0.183699 -0.316301 -0.25 -0.25 
C -0.316301 -0.183699 -0.353553 -0.093763 -0.353553 0 
C -0.353553 0.093763 -0.316301 0.183699 -0.25 0.25 
C -0.183699 0.316301 -0.093763 0.353553 0 0.353553 
z
" id="Ce_0_a571656e2e"/>
    </defs>
    <g clip-path="url(#peeacd0b11a)">
     <use style="fill:#fffff3;stroke:#fffff3;" x="166.70018" xlink:href="#Ce_0_a571656e2e" y="291.793809"/>
    </g>
    <g clip-path="url(#peeacd0b11a)">
     <use style="fill:#0b0000;stroke:#0b0000;" x="166.70018" xlink:href="#Ce_0_a571656e2e" y="295.467033"/>
    </g>
    <g clip-path="url(#peeacd0b11a)">
     <use style="fill:#ffff03;stroke:#ffff03;" x="166.70018" xlink:href="#Ce_0_a571656e2e" y="293.630421"/>
    </g>
   </g>
   <g id="PathCollection_16">
    <defs>
     <path d="M 0 0.353553 
C 0.093763 0.353553 0.183699 0.316301 0.25 0.25 
C 0.316301 0.183699 0.353553 0.093763 0.353553 0 
C 0.353553 -0.093763 0.316301 -0.183699 0.25 -0.25 
C 0.183699 -0.316301 0.093763 -0.353553 0 -0.353553 
C -0.093763 -0.353553 -0.183699 -0.316301 -0.25 -0.25 
C -0.316301 -0.183699 -0.353553 -0.093763 -0.353553 0 
C -0.353553 0.093763 -0.316301 0.183699 -0.25 0.25 
C -0.183699 0.316301 -0.093763 0.353553 0 0.353553 
z
" id="Cf_0_5ba2df3a50"/>
    </defs>
    <g clip-path="url(#peeacd0b11a)">
     <use style="fill:#0b0000;stroke:#0b0000;" x="173.315401" xlink:href="#Cf_0_5ba2df3a50" y="295.467033"/>
    </g>
    <g clip-path="url(#peeacd0b11a)">
     <use style="fill:#ffffa8;stroke:#ffffa8;" x="173.315401" xlink:href="#Cf_0_5ba2df3a50" y="293.630421"/>
    </g>
    <g clip-path="url(#peeacd0b11a)">
     <use style="fill:#fffff7;stroke:#fffff7;" x="173.315401" xlink:href="#Cf_0_5ba2df3a50" y="291.793809"/>
    </g>
   </g>
   <g id="PathCollection_17">
    <defs>
     <path d="M 0 0.353553 
C 0.093763 0.353553 0.183699 0.316301 0.25 0.25 
C 0.316301 0.183699 0.353553 0.093763 0.353553 0 
C 0.353553 -0.093763 0.316301 -0.183699 0.25 -0.25 
C 0.183699 -0.316301 0.093763 -0.353553 0 -0.353553 
C -0.093763 -0.353553 -0.183699 -0.316301 -0.25 -0.25 
C -0.316301 -0.183699 -0.353553 -0.093763 -0.353553 0 
C -0.353553 0.093763 -0.316301 0.183699 -0.25 0.25 
C -0.183699 0.316301 -0.093763 0.353553 0 0.353553 
z
" id="C10_0_10e0c63d90"/>
    </defs>
    <g clip-path="url(#peeacd0b11a)">
     <use style="fill:#0b0000;stroke:#0b0000;" x="179.930622" xlink:href="#C10_0_10e0c63d90" y="295.467033"/>
    </g>
    <g clip-path="url(#peeacd0b11a)">
     <use style="fill:#ffff22;stroke:#ffff22;" x="179.930622" xlink:href="#C10_0_10e0c63d90" y="293.630421"/>
    </g>
   </g>
   <g id="PathCollection_18">
    <defs>
     <path d="M 0 0.353553 
C 0.093763 0.353553 0.183699 0.316301 0.25 0.25 
C 0.316301 0.183699 0.353553 0.093763 0.353553 0 
C 0.353553 -0.093763 0.316301 -0.183699 0.25 -0.25 
C 0.183699 -0.316301 0.093763 -0.353553 0 -0.353553 
C -0.093763 -0.353553 -0.183699 -0.316301 -0.25 -0.25 
C -0.316301 -0.183699 -0.353553 -0.093763 -0.353553 0 
C -0.353553 0.093763 -0.316301 0.183699 -0.25 0.25 
C -0.183699 0.316301 -0.093763 0.353553 0 0.353553 
z
" id="C11_0_6418d9c35a"/>
    </defs>
    <g clip-path="url(#peeacd0b11a)">
     <use style="fill:#ffff2e;stroke:#ffff2e;" x="186.545843" xlink:href="#C11_0_6418d9c35a" y="293.630421"/>
    </g>
    <g clip-path="url(#peeacd0b11a)">
     <use style="fill:#0b0000;stroke:#0b0000;" x="186.545843" xlink:href="#C11_0_6418d9c35a" y="295.467033"/>
    </g>
    <g clip-path="url(#peeacd0b11a)">
     <use style="fill:#fffff3;stroke:#fffff3;" x="186.545843" xlink:href="#C11_0_6418d9c35a" y="291.793809"/>
    </g>
   </g>
   <g id="PathCollection_19">
    <defs>
     <path d="M 0 0.353553 
C 0.093763 0.353553 0.183699 0.316301 0.25 0.25 
C 0.316301 0.183699 0.353553 0.093763 0.353553 0 
C 0.353553 -0.093763 0.316301 -0.183699 0.25 -0.25 
C 0.183699 -0.316301 0.093763 -0.353553 0 -0.353553 
C -0.093763 -0.353553 -0.183699 -0.316301 -0.25 -0.25 
C -0.316301 -0.183699 -0.353553 -0.093763 -0.353553 0 
C -0.353553 0.093763 -0.316301 0.183699 -0.25 0.25 
C -0.183699 0.316301 -0.093763 0.353553 0 0.353553 
z
" id="C12_0_11c2e465c1"/>
    </defs>
    <g clip-path="url(#peeacd0b11a)">
     <use style="fill:#0b0000;stroke:#0b0000;" x="193.161064" xlink:href="#C12_0_11c2e465c1" y="295.467033"/>
    </g>
    <g clip-path="url(#peeacd0b11a)">
     <use style="fill:#fff400;stroke:#fff400;" x="193.161064" xlink:href="#C12_0_11c2e465c1" y="293.630421"/>
    </g>
    <g clip-path="url(#peeacd0b11a)">
     <use style="fill:#ffffe7;stroke:#ffffe7;" x="193.161064" xlink:href="#C12_0_11c2e465c1" y="291.793809"/>
    </g>
   </g>
   <g id="PathCollection_20">
    <defs>
     <path d="M 0 0.353553 
C 0.093763 0.353553 0.183699 0.316301 0.25 0.25 
C 0.316301 0.183699 0.353553 0.093763 0.353553 0 
C 0.353553 -0.093763 0.316301 -0.183699 0.25 -0.25 
C 0.183699 -0.316301 0.093763 -0.353553 0 -0.353553 
C -0.093763 -0.353553 -0.183699 -0.316301 -0.25 -0.25 
C -0.316301 -0.183699 -0.353553 -0.093763 -0.353553 0 
C -0.353553 0.093763 -0.316301 0.183699 -0.25 0.25 
C -0.183699 0.316301 -0.093763 0.353553 0 0.353553 
z
" id="C13_0_b0a1b623c7"/>
    </defs>
    <g clip-path="url(#peeacd0b11a)">
     <use style="fill:#0b0000;stroke:#0b0000;" x="199.776285" xlink:href="#C13_0_b0a1b623c7" y="295.467033"/>
    </g>
    <g clip-path="url(#peeacd0b11a)">
     <use style="fill:#ffff56;stroke:#ffff56;" x="199.776285" xlink:href="#C13_0_b0a1b623c7" y="293.630421"/>
    </g>
    <g clip-path="url(#peeacd0b11a)">
     <use style="fill:#ffffdc;stroke:#ffffdc;" x="199.776285" xlink:href="#C13_0_b0a1b623c7" y="291.793809"/>
    </g>
   </g>
   <g id="PathCollection_21">
    <defs>
     <path d="M 0 0.353553 
C 0.093763 0.353553 0.183699 0.316301 0.25 0.25 
C 0.316301 0.183699 0.353553 0.093763 0.353553 0 
C 0.353553 -0.093763 0.316301 -0.183699 0.25 -0.25 
C 0.183699 -0.316301 0.093763 -0.353553 0 -0.353553 
C -0.093763 -0.353553 -0.183699 -0.316301 -0.25 -0.25 
C -0.316301 -0.183699 -0.353553 -0.093763 -0.353553 0 
C -0.353553 0.093763 -0.316301 0.183699 -0.25 0.25 
C -0.183699 0.316301 -0.093763 0.353553 0 0.353553 
z
" id="C14_0_6102492536"/>
    </defs>
    <g clip-path="url(#peeacd0b11a)">
     <use style="fill:#0b0000;stroke:#0b0000;" x="206.391506" xlink:href="#C14_0_6102492536" y="295.467033"/>
    </g>
    <g clip-path="url(#peeacd0b11a)">
     <use style="fill:#ffaa00;stroke:#ffaa00;" x="206.391506" xlink:href="#C14_0_6102492536" y="293.630421"/>
    </g>
    <g clip-path="url(#peeacd0b11a)">
     <use style="fill:#ffffe3;stroke:#ffffe3;" x="206.391506" xlink:href="#C14_0_6102492536" y="291.793809"/>
    </g>
   </g>
   <g id="PathCollection_22">
    <defs>
     <path d="M 0 0.353553 
C 0.093763 0.353553 0.183699 0.316301 0.25 0.25 
C 0.316301 0.183699 0.353553 0.093763 0.353553 0 
C 0.353553 -0.093763 0.316301 -0.183699 0.25 -0.25 
C 0.183699 -0.316301 0.093763 -0.353553 0 -0.353553 
C -0.093763 -0.353553 -0.183699 -0.316301 -0.25 -0.25 
C -0.316301 -0.183699 -0.353553 -0.093763 -0.353553 0 
C -0.353553 0.093763 -0.316301 0.183699 -0.25 0.25 
C -0.183699 0.316301 -0.093763 0.353553 0 0.353553 
z
" id="C15_0_3e89b0ebb0"/>
    </defs>
    <g clip-path="url(#peeacd0b11a)">
     <use style="fill:#0b0000;stroke:#0b0000;" x="213.006727" xlink:href="#C15_0_3e89b0ebb0" y="295.467033"/>
    </g>
    <g clip-path="url(#peeacd0b11a)">
     <use style="fill:#ff4900;stroke:#ff4900;" x="213.006727" xlink:href="#C15_0_3e89b0ebb0" y="293.630421"/>
    </g>
    <g clip-path="url(#peeacd0b11a)">
     <use style="fill:#ffffc0;stroke:#ffffc0;" x="213.006727" xlink:href="#C15_0_3e89b0ebb0" y="291.793809"/>
    </g>
   </g>
   <g id="PathCollection_23">
    <defs>
     <path d="M 0 0.353553 
C 0.093763 0.353553 0.183699 0.316301 0.25 0.25 
C 0.316301 0.183699 0.353553 0.093763 0.353553 0 
C 0.353553 -0.093763 0.316301 -0.183699 0.25 -0.25 
C 0.183699 -0.316301 0.093763 -0.353553 0 -0.353553 
C -0.093763 -0.353553 -0.183699 -0.316301 -0.25 -0.25 
C -0.316301 -0.183699 -0.353553 -0.093763 -0.353553 0 
C -0.353553 0.093763 -0.316301 0.183699 -0.25 0.25 
C -0.183699 0.316301 -0.093763 0.353553 0 0.353553 
z
" id="C16_0_b094ec5ecc"/>
    </defs>
    <g clip-path="url(#peeacd0b11a)">
     <use style="fill:#ba0000;stroke:#ba0000;" x="219.621948" xlink:href="#C16_0_b094ec5ecc" y="293.630421"/>
    </g>
    <g clip-path="url(#peeacd0b11a)">
     <use style="fill:#0b0000;stroke:#0b0000;" x="219.621948" xlink:href="#C16_0_b094ec5ecc" y="295.467033"/>
    </g>
    <g clip-path="url(#peeacd0b11a)">
     <use style="fill:#ffffef;stroke:#ffffef;" x="219.621948" xlink:href="#C16_0_b094ec5ecc" y="289.957197"/>
    </g>
    <g clip-path="url(#peeacd0b11a)">
     <use style="fill:#ffff7d;stroke:#ffff7d;" x="219.621948" xlink:href="#C16_0_b094ec5ecc" y="291.793809"/>
    </g>
   </g>
   <g id="PathCollection_24">
    <defs>
     <path d="M 0 0.353553 
C 0.093763 0.353553 0.183699 0.316301 0.25 0.25 
C 0.316301 0.183699 0.353553 0.093763 0.353553 0 
C 0.353553 -0.093763 0.316301 -0.183699 0.25 -0.25 
C 0.183699 -0.316301 0.093763 -0.353553 0 -0.353553 
C -0.093763 -0.353553 -0.183699 -0.316301 -0.25 -0.25 
C -0.316301 -0.183699 -0.353553 -0.093763 -0.353553 0 
C -0.353553 0.093763 -0.316301 0.183699 -0.25 0.25 
C -0.183699 0.316301 -0.093763 0.353553 0 0.353553 
z
" id="C17_0_6a31f8bf79"/>
    </defs>
    <g clip-path="url(#peeacd0b11a)">
     <use style="fill:#0b0000;stroke:#0b0000;" x="226.237169" xlink:href="#C17_0_6a31f8bf79" y="295.467033"/>
    </g>
    <g clip-path="url(#peeacd0b11a)">
     <use style="fill:#b30000;stroke:#b30000;" x="226.237169" xlink:href="#C17_0_6a31f8bf79" y="293.630421"/>
    </g>
    <g clip-path="url(#peeacd0b11a)">
     <use style="fill:#ffffdc;stroke:#ffffdc;" x="226.237169" xlink:href="#C17_0_6a31f8bf79" y="291.793809"/>
    </g>
   </g>
   <g id="PathCollection_25">
    <defs>
     <path d="M 0 0.353553 
C 0.093763 0.353553 0.183699 0.316301 0.25 0.25 
C 0.316301 0.183699 0.353553 0.093763 0.353553 0 
C 0.353553 -0.093763 0.316301 -0.183699 0.25 -0.25 
C 0.183699 -0.316301 0.093763 -0.353553 0 -0.353553 
C -0.093763 -0.353553 -0.183699 -0.316301 -0.25 -0.25 
C -0.316301 -0.183699 -0.353553 -0.093763 -0.353553 0 
C -0.353553 0.093763 -0.316301 0.183699 -0.25 0.25 
C -0.183699 0.316301 -0.093763 0.353553 0 0.353553 
z
" id="C18_0_bfd07727a4"/>
    </defs>
    <g clip-path="url(#peeacd0b11a)">
     <use style="fill:#c50000;stroke:#c50000;" x="232.85239" xlink:href="#C18_0_bfd07727a4" y="293.630421"/>
    </g>
    <g clip-path="url(#peeacd0b11a)">
     <use style="fill:#0b0000;stroke:#0b0000;" x="232.85239" xlink:href="#C18_0_bfd07727a4" y="295.467033"/>
    </g>
    <g clip-path="url(#peeacd0b11a)">
     <use style="fill:#ffff7d;stroke:#ffff7d;" x="232.85239" xlink:href="#C18_0_bfd07727a4" y="291.793809"/>
    </g>
   </g>
   <g id="PathCollection_26">
    <defs>
     <path d="M 0 0.353553 
C 0.093763 0.353553 0.183699 0.316301 0.25 0.25 
C 0.316301 0.183699 0.353553 0.093763 0.353553 0 
C 0.353553 -0.093763 0.316301 -0.183699 0.25 -0.25 
C 0.183699 -0.316301 0.093763 -0.353553 0 -0.353553 
C -0.093763 -0.353553 -0.183699 -0.316301 -0.25 -0.25 
C -0.316301 -0.183699 -0.353553 -0.093763 -0.353553 0 
C -0.353553 0.093763 -0.316301 0.183699 -0.25 0.25 
C -0.183699 0.316301 -0.093763 0.353553 0 0.353553 
z
" id="C19_0_0c24f8d926"/>
    </defs>
    <g clip-path="url(#peeacd0b11a)">
     <use style="fill:#0b0000;stroke:#0b0000;" x="239.46761" xlink:href="#C19_0_0c24f8d926" y="295.467033"/>
    </g>
    <g clip-path="url(#peeacd0b11a)">
     <use style="fill:#a00000;stroke:#a00000;" x="239.46761" xlink:href="#C19_0_0c24f8d926" y="293.630421"/>
    </g>
    <g clip-path="url(#peeacd0b11a)">
     <use style="fill:#ffff1f;stroke:#ffff1f;" x="239.46761" xlink:href="#C19_0_0c24f8d926" y="291.793809"/>
    </g>
    <g clip-path="url(#peeacd0b11a)">
     <use style="fill:#ffffd8;stroke:#ffffd8;" x="239.46761" xlink:href="#C19_0_0c24f8d926" y="289.957197"/>
    </g>
   </g>
   <g id="PathCollection_27">
    <defs>
     <path d="M 0 0.353553 
C 0.093763 0.353553 0.183699 0.316301 0.25 0.25 
C 0.316301 0.183699 0.353553 0.093763 0.353553 0 
C 0.353553 -0.093763 0.316301 -0.183699 0.25 -0.25 
C 0.183699 -0.316301 0.093763 -0.353553 0 -0.353553 
C -0.093763 -0.353553 -0.183699 -0.316301 -0.25 -0.25 
C -0.316301 -0.183699 -0.353553 -0.093763 -0.353553 0 
C -0.353553 0.093763 -0.316301 0.183699 -0.25 0.25 
C -0.183699 0.316301 -0.093763 0.353553 0 0.353553 
z
" id="C1a_0_cee8e4cdc2"/>
    </defs>
    <g clip-path="url(#peeacd0b11a)">
     <use style="fill:#0b0000;stroke:#0b0000;" x="246.082831" xlink:href="#C1a_0_cee8e4cdc2" y="293.630421"/>
    </g>
    <g clip-path="url(#peeacd0b11a)">
     <use style="fill:#3f0000;stroke:#3f0000;" x="246.082831" xlink:href="#C1a_0_cee8e4cdc2" y="295.467033"/>
    </g>
    <g clip-path="url(#peeacd0b11a)">
     <use style="fill:#ffff99;stroke:#ffff99;" x="246.082831" xlink:href="#C1a_0_cee8e4cdc2" y="291.793809"/>
    </g>
    <g clip-path="url(#peeacd0b11a)">
     <use style="fill:#ffffeb;stroke:#ffffeb;" x="246.082831" xlink:href="#C1a_0_cee8e4cdc2" y="289.957197"/>
    </g>
   </g>
   <g id="PathCollection_28">
    <defs>
     <path d="M 0 0.353553 
C 0.093763 0.353553 0.183699 0.316301 0.25 0.25 
C 0.316301 0.183699 0.353553 0.093763 0.353553 0 
C 0.353553 -0.093763 0.316301 -0.183699 0.25 -0.25 
C 0.183699 -0.316301 0.093763 -0.353553 0 -0.353553 
C -0.093763 -0.353553 -0.183699 -0.316301 -0.25 -0.25 
C -0.316301 -0.183699 -0.353553 -0.093763 -0.353553 0 
C -0.353553 0.093763 -0.316301 0.183699 -0.25 0.25 
C -0.183699 0.316301 -0.093763 0.353553 0 0.353553 
z
" id="C1b_0_b4529e7bfb"/>
    </defs>
    <g clip-path="url(#peeacd0b11a)">
     <use style="fill:#0b0000;stroke:#0b0000;" x="252.698052" xlink:href="#C1b_0_b4529e7bfb" y="293.630421"/>
    </g>
    <g clip-path="url(#peeacd0b11a)">
     <use style="fill:#370000;stroke:#370000;" x="252.698052" xlink:href="#C1b_0_b4529e7bfb" y="295.467033"/>
    </g>
    <g clip-path="url(#peeacd0b11a)">
     <use style="fill:#ffff0b;stroke:#ffff0b;" x="252.698052" xlink:href="#C1b_0_b4529e7bfb" y="291.793809"/>
    </g>
    <g clip-path="url(#peeacd0b11a)">
     <use style="fill:#ffffd4;stroke:#ffffd4;" x="252.698052" xlink:href="#C1b_0_b4529e7bfb" y="289.957197"/>
    </g>
   </g>
   <g id="PathCollection_29">
    <defs>
     <path d="M 0 0.353553 
C 0.093763 0.353553 0.183699 0.316301 0.25 0.25 
C 0.316301 0.183699 0.353553 0.093763 0.353553 0 
C 0.353553 -0.093763 0.316301 -0.183699 0.25 -0.25 
C 0.183699 -0.316301 0.093763 -0.353553 0 -0.353553 
C -0.093763 -0.353553 -0.183699 -0.316301 -0.25 -0.25 
C -0.316301 -0.183699 -0.353553 -0.093763 -0.353553 0 
C -0.353553 0.093763 -0.316301 0.183699 -0.25 0.25 
C -0.183699 0.316301 -0.093763 0.353553 0 0.353553 
z
" id="C1c_0_6f2c64d640"/>
    </defs>
    <g clip-path="url(#peeacd0b11a)">
     <use style="fill:#2a0000;stroke:#2a0000;" x="259.313273" xlink:href="#C1c_0_6f2c64d640" y="295.467033"/>
    </g>
    <g clip-path="url(#peeacd0b11a)">
     <use style="fill:#ffca00;stroke:#ffca00;" x="259.313273" xlink:href="#C1c_0_6f2c64d640" y="291.793809"/>
    </g>
    <g clip-path="url(#peeacd0b11a)">
     <use style="fill:#0b0000;stroke:#0b0000;" x="259.313273" xlink:href="#C1c_0_6f2c64d640" y="293.630421"/>
    </g>
    <g clip-path="url(#peeacd0b11a)">
     <use style="fill:#ffffa0;stroke:#ffffa0;" x="259.313273" xlink:href="#C1c_0_6f2c64d640" y="289.957197"/>
    </g>
   </g>
   <g id="PathCollection_30">
    <defs>
     <path d="M 0 0.353553 
C 0.093763 0.353553 0.183699 0.316301 0.25 0.25 
C 0.316301 0.183699 0.353553 0.093763 0.353553 0 
C 0.353553 -0.093763 0.316301 -0.183699 0.25 -0.25 
C 0.183699 -0.316301 0.093763 -0.353553 0 -0.353553 
C -0.093763 -0.353553 -0.183699 -0.316301 -0.25 -0.25 
C -0.316301 -0.183699 -0.353553 -0.093763 -0.353553 0 
C -0.353553 0.093763 -0.316301 0.183699 -0.25 0.25 
C -0.183699 0.316301 -0.093763 0.353553 0 0.353553 
z
" id="C1d_0_668f17d720"/>
    </defs>
    <g clip-path="url(#peeacd0b11a)">
     <use style="fill:#0b0000;stroke:#0b0000;" x="265.928494" xlink:href="#C1d_0_668f17d720" y="293.630421"/>
    </g>
    <g clip-path="url(#peeacd0b11a)">
     <use style="fill:#ffffd0;stroke:#ffffd0;" x="265.928494" xlink:href="#C1d_0_668f17d720" y="289.957197"/>
    </g>
    <g clip-path="url(#peeacd0b11a)">
     <use style="fill:#590000;stroke:#590000;" x="265.928494" xlink:href="#C1d_0_668f17d720" y="295.467033"/>
    </g>
    <g clip-path="url(#peeacd0b11a)">
     <use style="fill:#ff8b00;stroke:#ff8b00;" x="265.928494" xlink:href="#C1d_0_668f17d720" y="291.793809"/>
    </g>
    <g clip-path="url(#peeacd0b11a)">
     <use style="fill:#ffffe7;stroke:#ffffe7;" x="265.928494" xlink:href="#C1d_0_668f17d720" y="288.120585"/>
    </g>
   </g>
   <g id="PathCollection_31">
    <defs>
     <path d="M 0 0.353553 
C 0.093763 0.353553 0.183699 0.316301 0.25 0.25 
C 0.316301 0.183699 0.353553 0.093763 0.353553 0 
C 0.353553 -0.093763 0.316301 -0.183699 0.25 -0.25 
C 0.183699 -0.316301 0.093763 -0.353553 0 -0.353553 
C -0.093763 -0.353553 -0.183699 -0.316301 -0.25 -0.25 
C -0.316301 -0.183699 -0.353553 -0.093763 -0.353553 0 
C -0.353553 0.093763 -0.316301 0.183699 -0.25 0.25 
C -0.183699 0.316301 -0.093763 0.353553 0 0.353553 
z
" id="C1e_0_e261a6df01"/>
    </defs>
    <g clip-path="url(#peeacd0b11a)">
     <use style="fill:#0b0000;stroke:#0b0000;" x="272.543715" xlink:href="#C1e_0_e261a6df01" y="293.630421"/>
    </g>
    <g clip-path="url(#peeacd0b11a)">
     <use style="fill:#640000;stroke:#640000;" x="272.543715" xlink:href="#C1e_0_e261a6df01" y="295.467033"/>
    </g>
    <g clip-path="url(#peeacd0b11a)">
     <use style="fill:#ffb500;stroke:#ffb500;" x="272.543715" xlink:href="#C1e_0_e261a6df01" y="291.793809"/>
    </g>
    <g clip-path="url(#peeacd0b11a)">
     <use style="fill:#ffffd4;stroke:#ffffd4;" x="272.543715" xlink:href="#C1e_0_e261a6df01" y="289.957197"/>
    </g>
   </g>
   <g id="PathCollection_32">
    <defs>
     <path d="M 0 0.353553 
C 0.093763 0.353553 0.183699 0.316301 0.25 0.25 
C 0.316301 0.183699 0.353553 0.093763 0.353553 0 
C 0.353553 -0.093763 0.316301 -0.183699 0.25 -0.25 
C 0.183699 -0.316301 0.093763 -0.353553 0 -0.353553 
C -0.093763 -0.353553 -0.183699 -0.316301 -0.25 -0.25 
C -0.316301 -0.183699 -0.353553 -0.093763 -0.353553 0 
C -0.353553 0.093763 -0.316301 0.183699 -0.25 0.25 
C -0.183699 0.316301 -0.093763 0.353553 0 0.353553 
z
" id="C1f_0_1f25ddd9cb"/>
    </defs>
    <g clip-path="url(#peeacd0b11a)">
     <use style="fill:#ff0200;stroke:#ff0200;" x="279.158936" xlink:href="#C1f_0_1f25ddd9cb" y="295.467033"/>
    </g>
    <g clip-path="url(#peeacd0b11a)">
     <use style="fill:#0b0000;stroke:#0b0000;" x="279.158936" xlink:href="#C1f_0_1f25ddd9cb" y="293.630421"/>
    </g>
    <g clip-path="url(#peeacd0b11a)">
     <use style="fill:#ffcf00;stroke:#ffcf00;" x="279.158936" xlink:href="#C1f_0_1f25ddd9cb" y="291.793809"/>
    </g>
    <g clip-path="url(#peeacd0b11a)">
     <use style="fill:#ffffb0;stroke:#ffffb0;" x="279.158936" xlink:href="#C1f_0_1f25ddd9cb" y="289.957197"/>
    </g>
   </g>
   <g id="PathCollection_33">
    <defs>
     <path d="M 0 0.353553 
C 0.093763 0.353553 0.183699 0.316301 0.25 0.25 
C 0.316301 0.183699 0.353553 0.093763 0.353553 0 
C 0.353553 -0.093763 0.316301 -0.183699 0.25 -0.25 
C 0.183699 -0.316301 0.093763 -0.353553 0 -0.353553 
C -0.093763 -0.353553 -0.183699 -0.316301 -0.25 -0.25 
C -0.316301 -0.183699 -0.353553 -0.093763 -0.353553 0 
C -0.353553 0.093763 -0.316301 0.183699 -0.25 0.25 
C -0.183699 0.316301 -0.093763 0.353553 0 0.353553 
z
" id="C20_0_f1b9773d17"/>
    </defs>
    <g clip-path="url(#peeacd0b11a)">
     <use style="fill:#ff9b00;stroke:#ff9b00;" x="285.774157" xlink:href="#C20_0_f1b9773d17" y="291.793809"/>
    </g>
    <g clip-path="url(#peeacd0b11a)">
     <use style="fill:#2a0000;stroke:#2a0000;" x="285.774157" xlink:href="#C20_0_f1b9773d17" y="295.467033"/>
    </g>
    <g clip-path="url(#peeacd0b11a)">
     <use style="fill:#0b0000;stroke:#0b0000;" x="285.774157" xlink:href="#C20_0_f1b9773d17" y="293.630421"/>
    </g>
    <g clip-path="url(#peeacd0b11a)">
     <use style="fill:#ffffe7;stroke:#ffffe7;" x="285.774157" xlink:href="#C20_0_f1b9773d17" y="289.957197"/>
    </g>
   </g>
   <g id="PathCollection_34">
    <defs>
     <path d="M 0 0.353553 
C 0.093763 0.353553 0.183699 0.316301 0.25 0.25 
C 0.316301 0.183699 0.353553 0.093763 0.353553 0 
C 0.353553 -0.093763 0.316301 -0.183699 0.25 -0.25 
C 0.183699 -0.316301 0.093763 -0.353553 0 -0.353553 
C -0.093763 -0.353553 -0.183699 -0.316301 -0.25 -0.25 
C -0.316301 -0.183699 -0.353553 -0.093763 -0.353553 0 
C -0.353553 0.093763 -0.316301 0.183699 -0.25 0.25 
C -0.183699 0.316301 -0.093763 0.353553 0 0.353553 
z
" id="C21_0_9bb07fa000"/>
    </defs>
    <g clip-path="url(#peeacd0b11a)">
     <use style="fill:#ff9800;stroke:#ff9800;" x="292.389378" xlink:href="#C21_0_9bb07fa000" y="291.793809"/>
    </g>
    <g clip-path="url(#peeacd0b11a)">
     <use style="fill:#0b0000;stroke:#0b0000;" x="292.389378" xlink:href="#C21_0_9bb07fa000" y="293.630421"/>
    </g>
    <g clip-path="url(#peeacd0b11a)">
     <use style="fill:#ffffb8;stroke:#ffffb8;" x="292.389378" xlink:href="#C21_0_9bb07fa000" y="289.957197"/>
    </g>
    <g clip-path="url(#peeacd0b11a)">
     <use style="fill:#ffb200;stroke:#ffb200;" x="292.389378" xlink:href="#C21_0_9bb07fa000" y="295.467033"/>
    </g>
   </g>
   <g id="PathCollection_35">
    <defs>
     <path d="M 0 0.353553 
C 0.093763 0.353553 0.183699 0.316301 0.25 0.25 
C 0.316301 0.183699 0.353553 0.093763 0.353553 0 
C 0.353553 -0.093763 0.316301 -0.183699 0.25 -0.25 
C 0.183699 -0.316301 0.093763 -0.353553 0 -0.353553 
C -0.093763 -0.353553 -0.183699 -0.316301 -0.25 -0.25 
C -0.316301 -0.183699 -0.353553 -0.093763 -0.353553 0 
C -0.353553 0.093763 -0.316301 0.183699 -0.25 0.25 
C -0.183699 0.316301 -0.093763 0.353553 0 0.353553 
z
" id="C22_0_cd5a053876"/>
    </defs>
    <g clip-path="url(#peeacd0b11a)">
     <use style="fill:#ff8e00;stroke:#ff8e00;" x="299.004599" xlink:href="#C22_0_cd5a053876" y="291.793809"/>
    </g>
    <g clip-path="url(#peeacd0b11a)">
     <use style="fill:#0b0000;stroke:#0b0000;" x="299.004599" xlink:href="#C22_0_cd5a053876" y="293.630421"/>
    </g>
    <g clip-path="url(#peeacd0b11a)">
     <use style="fill:#da0000;stroke:#da0000;" x="299.004599" xlink:href="#C22_0_cd5a053876" y="295.467033"/>
    </g>
    <g clip-path="url(#peeacd0b11a)">
     <use style="fill:#ffffa8;stroke:#ffffa8;" x="299.004599" xlink:href="#C22_0_cd5a053876" y="289.957197"/>
    </g>
    <g clip-path="url(#peeacd0b11a)">
     <use style="fill:#ffffeb;stroke:#ffffeb;" x="299.004599" xlink:href="#C22_0_cd5a053876" y="286.283973"/>
    </g>
   </g>
   <g id="PathCollection_36">
    <defs>
     <path d="M 0 0.353553 
C 0.093763 0.353553 0.183699 0.316301 0.25 0.25 
C 0.316301 0.183699 0.353553 0.093763 0.353553 0 
C 0.353553 -0.093763 0.316301 -0.183699 0.25 -0.25 
C 0.183699 -0.316301 0.093763 -0.353553 0 -0.353553 
C -0.093763 -0.353553 -0.183699 -0.316301 -0.25 -0.25 
C -0.316301 -0.183699 -0.353553 -0.093763 -0.353553 0 
C -0.353553 0.093763 -0.316301 0.183699 -0.25 0.25 
C -0.183699 0.316301 -0.093763 0.353553 0 0.353553 
z
" id="C23_0_83bb0e7393"/>
    </defs>
    <g clip-path="url(#peeacd0b11a)">
     <use style="fill:#ff6400;stroke:#ff6400;" x="305.61982" xlink:href="#C23_0_83bb0e7393" y="291.793809"/>
    </g>
    <g clip-path="url(#peeacd0b11a)">
     <use style="fill:#4f0000;stroke:#4f0000;" x="305.61982" xlink:href="#C23_0_83bb0e7393" y="295.467033"/>
    </g>
    <g clip-path="url(#peeacd0b11a)">
     <use style="fill:#0b0000;stroke:#0b0000;" x="305.61982" xlink:href="#C23_0_83bb0e7393" y="293.630421"/>
    </g>
    <g clip-path="url(#peeacd0b11a)">
     <use style="fill:#ffff4e;stroke:#ffff4e;" x="305.61982" xlink:href="#C23_0_83bb0e7393" y="289.957197"/>
    </g>
   </g>
   <g id="PathCollection_37">
    <defs>
     <path d="M 0 0.353553 
C 0.093763 0.353553 0.183699 0.316301 0.25 0.25 
C 0.316301 0.183699 0.353553 0.093763 0.353553 0 
C 0.353553 -0.093763 0.316301 -0.183699 0.25 -0.25 
C 0.183699 -0.316301 0.093763 -0.353553 0 -0.353553 
C -0.093763 -0.353553 -0.183699 -0.316301 -0.25 -0.25 
C -0.316301 -0.183699 -0.353553 -0.093763 -0.353553 0 
C -0.353553 0.093763 -0.316301 0.183699 -0.25 0.25 
C -0.183699 0.316301 -0.093763 0.353553 0 0.353553 
z
" id="C24_0_6e773b36b7"/>
    </defs>
    <g clip-path="url(#peeacd0b11a)">
     <use style="fill:#0b0000;stroke:#0b0000;" x="312.235041" xlink:href="#C24_0_6e773b36b7" y="293.630421"/>
    </g>
    <g clip-path="url(#peeacd0b11a)">
     <use style="fill:#ff2a00;stroke:#ff2a00;" x="312.235041" xlink:href="#C24_0_6e773b36b7" y="295.467033"/>
    </g>
    <g clip-path="url(#peeacd0b11a)">
     <use style="fill:#ffff99;stroke:#ffff99;" x="312.235041" xlink:href="#C24_0_6e773b36b7" y="289.957197"/>
    </g>
    <g clip-path="url(#peeacd0b11a)">
     <use style="fill:#ffc200;stroke:#ffc200;" x="312.235041" xlink:href="#C24_0_6e773b36b7" y="291.793809"/>
    </g>
    <g clip-path="url(#peeacd0b11a)">
     <use style="fill:#ffffeb;stroke:#ffffeb;" x="312.235041" xlink:href="#C24_0_6e773b36b7" y="288.120585"/>
    </g>
   </g>
   <g id="PathCollection_38">
    <defs>
     <path d="M 0 0.353553 
C 0.093763 0.353553 0.183699 0.316301 0.25 0.25 
C 0.316301 0.183699 0.353553 0.093763 0.353553 0 
C 0.353553 -0.093763 0.316301 -0.183699 0.25 -0.25 
C 0.183699 -0.316301 0.093763 -0.353553 0 -0.353553 
C -0.093763 -0.353553 -0.183699 -0.316301 -0.25 -0.25 
C -0.316301 -0.183699 -0.353553 -0.093763 -0.353553 0 
C -0.353553 0.093763 -0.316301 0.183699 -0.25 0.25 
C -0.183699 0.316301 -0.093763 0.353553 0 0.353553 
z
" id="C25_0_5ba8bc141d"/>
    </defs>
    <g clip-path="url(#peeacd0b11a)">
     <use style="fill:#0b0000;stroke:#0b0000;" x="318.850262" xlink:href="#C25_0_5ba8bc141d" y="293.630421"/>
    </g>
    <g clip-path="url(#peeacd0b11a)">
     <use style="fill:#c50000;stroke:#c50000;" x="318.850262" xlink:href="#C25_0_5ba8bc141d" y="295.467033"/>
    </g>
    <g clip-path="url(#peeacd0b11a)">
     <use style="fill:#ff9000;stroke:#ff9000;" x="318.850262" xlink:href="#C25_0_5ba8bc141d" y="291.793809"/>
    </g>
    <g clip-path="url(#peeacd0b11a)">
     <use style="fill:#ffff75;stroke:#ffff75;" x="318.850262" xlink:href="#C25_0_5ba8bc141d" y="289.957197"/>
    </g>
    <g clip-path="url(#peeacd0b11a)">
     <use style="fill:#ffffd4;stroke:#ffffd4;" x="318.850262" xlink:href="#C25_0_5ba8bc141d" y="288.120585"/>
    </g>
   </g>
   <g id="PathCollection_39">
    <defs>
     <path d="M 0 0.353553 
C 0.093763 0.353553 0.183699 0.316301 0.25 0.25 
C 0.316301 0.183699 0.353553 0.093763 0.353553 0 
C 0.353553 -0.093763 0.316301 -0.183699 0.25 -0.25 
C 0.183699 -0.316301 0.093763 -0.353553 0 -0.353553 
C -0.093763 -0.353553 -0.183699 -0.316301 -0.25 -0.25 
C -0.316301 -0.183699 -0.353553 -0.093763 -0.353553 0 
C -0.353553 0.093763 -0.316301 0.183699 -0.25 0.25 
C -0.183699 0.316301 -0.093763 0.353553 0 0.353553 
z
" id="C26_0_c735e1d8d1"/>
    </defs>
    <g clip-path="url(#peeacd0b11a)">
     <use style="fill:#ffd700;stroke:#ffd700;" x="325.465483" xlink:href="#C26_0_c735e1d8d1" y="291.793809"/>
    </g>
    <g clip-path="url(#peeacd0b11a)">
     <use style="fill:#0b0000;stroke:#0b0000;" x="325.465483" xlink:href="#C26_0_c735e1d8d1" y="293.630421"/>
    </g>
    <g clip-path="url(#peeacd0b11a)">
     <use style="fill:#ffffa4;stroke:#ffffa4;" x="325.465483" xlink:href="#C26_0_c735e1d8d1" y="289.957197"/>
    </g>
    <g clip-path="url(#peeacd0b11a)">
     <use style="fill:#ff8000;stroke:#ff8000;" x="325.465483" xlink:href="#C26_0_c735e1d8d1" y="295.467033"/>
    </g>
   </g>
   <g id="PathCollection_40">
    <defs>
     <path d="M 0 0.353553 
C 0.093763 0.353553 0.183699 0.316301 0.25 0.25 
C 0.316301 0.183699 0.353553 0.093763 0.353553 0 
C 0.353553 -0.093763 0.316301 -0.183699 0.25 -0.25 
C 0.183699 -0.316301 0.093763 -0.353553 0 -0.353553 
C -0.093763 -0.353553 -0.183699 -0.316301 -0.25 -0.25 
C -0.316301 -0.183699 -0.353553 -0.093763 -0.353553 0 
C -0.353553 0.093763 -0.316301 0.183699 -0.25 0.25 
C -0.183699 0.316301 -0.093763 0.353553 0 0.353553 
z
" id="C27_0_aa2c20a6d6"/>
    </defs>
    <g clip-path="url(#peeacd0b11a)">
     <use style="fill:#0b0000;stroke:#0b0000;" x="332.080704" xlink:href="#C27_0_aa2c20a6d6" y="293.630421"/>
    </g>
    <g clip-path="url(#peeacd0b11a)">
     <use style="fill:#ff0a00;stroke:#ff0a00;" x="332.080704" xlink:href="#C27_0_aa2c20a6d6" y="291.793809"/>
    </g>
    <g clip-path="url(#peeacd0b11a)">
     <use style="fill:#f90000;stroke:#f90000;" x="332.080704" xlink:href="#C27_0_aa2c20a6d6" y="295.467033"/>
    </g>
    <g clip-path="url(#peeacd0b11a)">
     <use style="fill:#ffffa0;stroke:#ffffa0;" x="332.080704" xlink:href="#C27_0_aa2c20a6d6" y="289.957197"/>
    </g>
    <g clip-path="url(#peeacd0b11a)">
     <use style="fill:#ffffe7;stroke:#ffffe7;" x="332.080704" xlink:href="#C27_0_aa2c20a6d6" y="288.120585"/>
    </g>
   </g>
   <g id="PathCollection_41">
    <defs>
     <path d="M 0 0.353553 
C 0.093763 0.353553 0.183699 0.316301 0.25 0.25 
C 0.316301 0.183699 0.353553 0.093763 0.353553 0 
C 0.353553 -0.093763 0.316301 -0.183699 0.25 -0.25 
C 0.183699 -0.316301 0.093763 -0.353553 0 -0.353553 
C -0.093763 -0.353553 -0.183699 -0.316301 -0.25 -0.25 
C -0.316301 -0.183699 -0.353553 -0.093763 -0.353553 0 
C -0.353553 0.093763 -0.316301 0.183699 -0.25 0.25 
C -0.183699 0.316301 -0.093763 0.353553 0 0.353553 
z
" id="C28_0_a8b9447a84"/>
    </defs>
    <g clip-path="url(#peeacd0b11a)">
     <use style="fill:#ff0800;stroke:#ff0800;" x="338.695925" xlink:href="#C28_0_a8b9447a84" y="291.793809"/>
    </g>
    <g clip-path="url(#peeacd0b11a)">
     <use style="fill:#0b0000;stroke:#0b0000;" x="338.695925" xlink:href="#C28_0_a8b9447a84" y="293.630421"/>
    </g>
    <g clip-path="url(#peeacd0b11a)">
     <use style="fill:#ff8000;stroke:#ff8000;" x="338.695925" xlink:href="#C28_0_a8b9447a84" y="295.467033"/>
    </g>
    <g clip-path="url(#peeacd0b11a)">
     <use style="fill:#ffff65;stroke:#ffff65;" x="338.695925" xlink:href="#C28_0_a8b9447a84" y="289.957197"/>
    </g>
   </g>
   <g id="PathCollection_42">
    <defs>
     <path d="M 0 0.353553 
C 0.093763 0.353553 0.183699 0.316301 0.25 0.25 
C 0.316301 0.183699 0.353553 0.093763 0.353553 0 
C 0.353553 -0.093763 0.316301 -0.183699 0.25 -0.25 
C 0.183699 -0.316301 0.093763 -0.353553 0 -0.353553 
C -0.093763 -0.353553 -0.183699 -0.316301 -0.25 -0.25 
C -0.316301 -0.183699 -0.353553 -0.093763 -0.353553 0 
C -0.353553 0.093763 -0.316301 0.183699 -0.25 0.25 
C -0.183699 0.316301 -0.093763 0.353553 0 0.353553 
z
" id="C29_0_0d0886b963"/>
    </defs>
    <g clip-path="url(#peeacd0b11a)">
     <use style="fill:#ff1500;stroke:#ff1500;" x="345.311146" xlink:href="#C29_0_0d0886b963" y="291.793809"/>
    </g>
    <g clip-path="url(#peeacd0b11a)">
     <use style="fill:#ff5400;stroke:#ff5400;" x="345.311146" xlink:href="#C29_0_0d0886b963" y="295.467033"/>
    </g>
    <g clip-path="url(#peeacd0b11a)">
     <use style="fill:#ffff8d;stroke:#ffff8d;" x="345.311146" xlink:href="#C29_0_0d0886b963" y="289.957197"/>
    </g>
    <g clip-path="url(#peeacd0b11a)">
     <use style="fill:#0b0000;stroke:#0b0000;" x="345.311146" xlink:href="#C29_0_0d0886b963" y="293.630421"/>
    </g>
    <g clip-path="url(#peeacd0b11a)">
     <use style="fill:#ffffa4;stroke:#ffffa4;" x="345.311146" xlink:href="#C29_0_0d0886b963" y="288.120585"/>
    </g>
   </g>
   <g id="PathCollection_43">
    <defs>
     <path d="M 0 0.353553 
C 0.093763 0.353553 0.183699 0.316301 0.25 0.25 
C 0.316301 0.183699 0.353553 0.093763 0.353553 0 
C 0.353553 -0.093763 0.316301 -0.183699 0.25 -0.25 
C 0.183699 -0.316301 0.093763 -0.353553 0 -0.353553 
C -0.093763 -0.353553 -0.183699 -0.316301 -0.25 -0.25 
C -0.316301 -0.183699 -0.353553 -0.093763 -0.353553 0 
C -0.353553 0.093763 -0.316301 0.183699 -0.25 0.25 
C -0.183699 0.316301 -0.093763 0.353553 0 0.353553 
z
" id="C2a_0_db5452b386"/>
    </defs>
    <g clip-path="url(#peeacd0b11a)">
     <use style="fill:#ff0800;stroke:#ff0800;" x="351.926367" xlink:href="#C2a_0_db5452b386" y="291.793809"/>
    </g>
    <g clip-path="url(#peeacd0b11a)">
     <use style="fill:#ffff5a;stroke:#ffff5a;" x="351.926367" xlink:href="#C2a_0_db5452b386" y="289.957197"/>
    </g>
    <g clip-path="url(#peeacd0b11a)">
     <use style="fill:#0b0000;stroke:#0b0000;" x="351.926367" xlink:href="#C2a_0_db5452b386" y="293.630421"/>
    </g>
    <g clip-path="url(#peeacd0b11a)">
     <use style="fill:#ffff1b;stroke:#ffff1b;" x="351.926367" xlink:href="#C2a_0_db5452b386" y="295.467033"/>
    </g>
    <g clip-path="url(#peeacd0b11a)">
     <use style="fill:#ffffd8;stroke:#ffffd8;" x="351.926367" xlink:href="#C2a_0_db5452b386" y="288.120585"/>
    </g>
    <g clip-path="url(#peeacd0b11a)">
     <use style="fill:#ffffeb;stroke:#ffffeb;" x="351.926367" xlink:href="#C2a_0_db5452b386" y="286.283973"/>
    </g>
   </g>
   <g id="PathCollection_44">
    <defs>
     <path d="M 0 0.353553 
C 0.093763 0.353553 0.183699 0.316301 0.25 0.25 
C 0.316301 0.183699 0.353553 0.093763 0.353553 0 
C 0.353553 -0.093763 0.316301 -0.183699 0.25 -0.25 
C 0.183699 -0.316301 0.093763 -0.353553 0 -0.353553 
C -0.093763 -0.353553 -0.183699 -0.316301 -0.25 -0.25 
C -0.316301 -0.183699 -0.353553 -0.093763 -0.353553 0 
C -0.353553 0.093763 -0.316301 0.183699 -0.25 0.25 
C -0.183699 0.316301 -0.093763 0.353553 0 0.353553 
z
" id="C2b_0_2513295b2f"/>
    </defs>
    <g clip-path="url(#peeacd0b11a)">
     <use style="fill:#0b0000;stroke:#0b0000;" x="358.541588" xlink:href="#C2b_0_2513295b2f" y="293.630421"/>
    </g>
    <g clip-path="url(#peeacd0b11a)">
     <use style="fill:#ff3a00;stroke:#ff3a00;" x="358.541588" xlink:href="#C2b_0_2513295b2f" y="291.793809"/>
    </g>
    <g clip-path="url(#peeacd0b11a)">
     <use style="fill:#ffd700;stroke:#ffd700;" x="358.541588" xlink:href="#C2b_0_2513295b2f" y="295.467033"/>
    </g>
    <g clip-path="url(#peeacd0b11a)">
     <use style="fill:#ffffb0;stroke:#ffffb0;" x="358.541588" xlink:href="#C2b_0_2513295b2f" y="289.957197"/>
    </g>
    <g clip-path="url(#peeacd0b11a)">
     <use style="fill:#ffffeb;stroke:#ffffeb;" x="358.541588" xlink:href="#C2b_0_2513295b2f" y="288.120585"/>
    </g>
   </g>
   <g id="PathCollection_45">
    <defs>
     <path d="M 0 0.353553 
C 0.093763 0.353553 0.183699 0.316301 0.25 0.25 
C 0.316301 0.183699 0.353553 0.093763 0.353553 0 
C 0.353553 -0.093763 0.316301 -0.183699 0.25 -0.25 
C 0.183699 -0.316301 0.093763 -0.353553 0 -0.353553 
C -0.093763 -0.353553 -0.183699 -0.316301 -0.25 -0.25 
C -0.316301 -0.183699 -0.353553 -0.093763 -0.353553 0 
C -0.353553 0.093763 -0.316301 0.183699 -0.25 0.25 
C -0.183699 0.316301 -0.093763 0.353553 0 0.353553 
z
" id="C2c_0_c3e82fcff5"/>
    </defs>
    <g clip-path="url(#peeacd0b11a)">
     <use style="fill:#0b0000;stroke:#0b0000;" x="365.156809" xlink:href="#C2c_0_c3e82fcff5" y="293.630421"/>
    </g>
    <g clip-path="url(#peeacd0b11a)">
     <use style="fill:#ffcf00;stroke:#ffcf00;" x="365.156809" xlink:href="#C2c_0_c3e82fcff5" y="289.957197"/>
    </g>
    <g clip-path="url(#peeacd0b11a)">
     <use style="fill:#ff0800;stroke:#ff0800;" x="365.156809" xlink:href="#C2c_0_c3e82fcff5" y="295.467033"/>
    </g>
    <g clip-path="url(#peeacd0b11a)">
     <use style="fill:#ffffe7;stroke:#ffffe7;" x="365.156809" xlink:href="#C2c_0_c3e82fcff5" y="288.120585"/>
    </g>
    <g clip-path="url(#peeacd0b11a)">
     <use style="fill:#d20000;stroke:#d20000;" x="365.156809" xlink:href="#C2c_0_c3e82fcff5" y="291.793809"/>
    </g>
    <g clip-path="url(#peeacd0b11a)">
     <use style="fill:#ffffe7;stroke:#ffffe7;" x="365.156809" xlink:href="#C2c_0_c3e82fcff5" y="286.283973"/>
    </g>
   </g>
   <g id="PathCollection_46">
    <defs>
     <path d="M 0 0.353553 
C 0.093763 0.353553 0.183699 0.316301 0.25 0.25 
C 0.316301 0.183699 0.353553 0.093763 0.353553 0 
C 0.353553 -0.093763 0.316301 -0.183699 0.25 -0.25 
C 0.183699 -0.316301 0.093763 -0.353553 0 -0.353553 
C -0.093763 -0.353553 -0.183699 -0.316301 -0.25 -0.25 
C -0.316301 -0.183699 -0.353553 -0.093763 -0.353553 0 
C -0.353553 0.093763 -0.316301 0.183699 -0.25 0.25 
C -0.183699 0.316301 -0.093763 0.353553 0 0.353553 
z
" id="C2d_0_14f7a26569"/>
    </defs>
    <g clip-path="url(#peeacd0b11a)">
     <use style="fill:#ff8600;stroke:#ff8600;" x="371.77203" xlink:href="#C2d_0_14f7a26569" y="295.467033"/>
    </g>
    <g clip-path="url(#peeacd0b11a)">
     <use style="fill:#b50000;stroke:#b50000;" x="371.77203" xlink:href="#C2d_0_14f7a26569" y="291.793809"/>
    </g>
    <g clip-path="url(#peeacd0b11a)">
     <use style="fill:#0b0000;stroke:#0b0000;" x="371.77203" xlink:href="#C2d_0_14f7a26569" y="293.630421"/>
    </g>
    <g clip-path="url(#peeacd0b11a)">
     <use style="fill:#ffca00;stroke:#ffca00;" x="371.77203" xlink:href="#C2d_0_14f7a26569" y="289.957197"/>
    </g>
    <g clip-path="url(#peeacd0b11a)">
     <use style="fill:#ffffcc;stroke:#ffffcc;" x="371.77203" xlink:href="#C2d_0_14f7a26569" y="288.120585"/>
    </g>
   </g>
   <g id="PathCollection_47">
    <defs>
     <path d="M 0 0.353553 
C 0.093763 0.353553 0.183699 0.316301 0.25 0.25 
C 0.316301 0.183699 0.353553 0.093763 0.353553 0 
C 0.353553 -0.093763 0.316301 -0.183699 0.25 -0.25 
C 0.183699 -0.316301 0.093763 -0.353553 0 -0.353553 
C -0.093763 -0.353553 -0.183699 -0.316301 -0.25 -0.25 
C -0.316301 -0.183699 -0.353553 -0.093763 -0.353553 0 
C -0.353553 0.093763 -0.316301 0.183699 -0.25 0.25 
C -0.183699 0.316301 -0.093763 0.353553 0 0.353553 
z
" id="C2e_0_0801bf7f09"/>
    </defs>
    <g clip-path="url(#peeacd0b11a)">
     <use style="fill:#0b0000;stroke:#0b0000;" x="378.387251" xlink:href="#C2e_0_0801bf7f09" y="293.630421"/>
    </g>
    <g clip-path="url(#peeacd0b11a)">
     <use style="fill:#fff900;stroke:#fff900;" x="378.387251" xlink:href="#C2e_0_0801bf7f09" y="295.467033"/>
    </g>
    <g clip-path="url(#peeacd0b11a)">
     <use style="fill:#ffc500;stroke:#ffc500;" x="378.387251" xlink:href="#C2e_0_0801bf7f09" y="289.957197"/>
    </g>
    <g clip-path="url(#peeacd0b11a)">
     <use style="fill:#2d0000;stroke:#2d0000;" x="378.387251" xlink:href="#C2e_0_0801bf7f09" y="291.793809"/>
    </g>
    <g clip-path="url(#peeacd0b11a)">
     <use style="fill:#ffffb0;stroke:#ffffb0;" x="378.387251" xlink:href="#C2e_0_0801bf7f09" y="288.120585"/>
    </g>
   </g>
   <g id="PathCollection_48">
    <defs>
     <path d="M 0 0.353553 
C 0.093763 0.353553 0.183699 0.316301 0.25 0.25 
C 0.316301 0.183699 0.353553 0.093763 0.353553 0 
C 0.353553 -0.093763 0.316301 -0.183699 0.25 -0.25 
C 0.183699 -0.316301 0.093763 -0.353553 0 -0.353553 
C -0.093763 -0.353553 -0.183699 -0.316301 -0.25 -0.25 
C -0.316301 -0.183699 -0.353553 -0.093763 -0.353553 0 
C -0.353553 0.093763 -0.316301 0.183699 -0.25 0.25 
C -0.183699 0.316301 -0.093763 0.353553 0 0.353553 
z
" id="C2f_0_7216f298c0"/>
    </defs>
    <g clip-path="url(#peeacd0b11a)">
     <use style="fill:#b50000;stroke:#b50000;" x="385.002472" xlink:href="#C2f_0_7216f298c0" y="291.793809"/>
    </g>
    <g clip-path="url(#peeacd0b11a)">
     <use style="fill:#0b0000;stroke:#0b0000;" x="385.002472" xlink:href="#C2f_0_7216f298c0" y="293.630421"/>
    </g>
    <g clip-path="url(#peeacd0b11a)">
     <use style="fill:#fffe00;stroke:#fffe00;" x="385.002472" xlink:href="#C2f_0_7216f298c0" y="295.467033"/>
    </g>
    <g clip-path="url(#peeacd0b11a)">
     <use style="fill:#ff1700;stroke:#ff1700;" x="385.002472" xlink:href="#C2f_0_7216f298c0" y="289.957197"/>
    </g>
    <g clip-path="url(#peeacd0b11a)">
     <use style="fill:#ffff71;stroke:#ffff71;" x="385.002472" xlink:href="#C2f_0_7216f298c0" y="288.120585"/>
    </g>
    <g clip-path="url(#peeacd0b11a)">
     <use style="fill:#ffffac;stroke:#ffffac;" x="385.002472" xlink:href="#C2f_0_7216f298c0" y="286.283973"/>
    </g>
    <g clip-path="url(#peeacd0b11a)">
     <use style="fill:#ffffe3;stroke:#ffffe3;" x="385.002472" xlink:href="#C2f_0_7216f298c0" y="284.447361"/>
    </g>
   </g>
   <g id="PathCollection_49">
    <defs>
     <path d="M 0 0.353553 
C 0.093763 0.353553 0.183699 0.316301 0.25 0.25 
C 0.316301 0.183699 0.353553 0.093763 0.353553 0 
C 0.353553 -0.093763 0.316301 -0.183699 0.25 -0.25 
C 0.183699 -0.316301 0.093763 -0.353553 0 -0.353553 
C -0.093763 -0.353553 -0.183699 -0.316301 -0.25 -0.25 
C -0.316301 -0.183699 -0.353553 -0.093763 -0.353553 0 
C -0.353553 0.093763 -0.316301 0.183699 -0.25 0.25 
C -0.183699 0.316301 -0.093763 0.353553 0 0.353553 
z
" id="C30_0_4821760038"/>
    </defs>
    <g clip-path="url(#peeacd0b11a)">
     <use style="fill:#ff9500;stroke:#ff9500;" x="391.617693" xlink:href="#C30_0_4821760038" y="293.630421"/>
    </g>
    <g clip-path="url(#peeacd0b11a)">
     <use style="fill:#370000;stroke:#370000;" x="391.617693" xlink:href="#C30_0_4821760038" y="291.793809"/>
    </g>
    <g clip-path="url(#peeacd0b11a)">
     <use style="fill:#ffff0f;stroke:#ffff0f;" x="391.617693" xlink:href="#C30_0_4821760038" y="286.283973"/>
    </g>
    <g clip-path="url(#peeacd0b11a)">
     <use style="fill:#ffff99;stroke:#ffff99;" x="391.617693" xlink:href="#C30_0_4821760038" y="295.467033"/>
    </g>
    <g clip-path="url(#peeacd0b11a)">
     <use style="fill:#0b0000;stroke:#0b0000;" x="391.617693" xlink:href="#C30_0_4821760038" y="289.957197"/>
    </g>
    <g clip-path="url(#peeacd0b11a)">
     <use style="fill:#f20000;stroke:#f20000;" x="391.617693" xlink:href="#C30_0_4821760038" y="288.120585"/>
    </g>
    <g clip-path="url(#peeacd0b11a)">
     <use style="fill:#ffff99;stroke:#ffff99;" x="391.617693" xlink:href="#C30_0_4821760038" y="284.447361"/>
    </g>
   </g>
   <g id="PathCollection_50">
    <defs>
     <path d="M 0 0.353553 
C 0.093763 0.353553 0.183699 0.316301 0.25 0.25 
C 0.316301 0.183699 0.353553 0.093763 0.353553 0 
C 0.353553 -0.093763 0.316301 -0.183699 0.25 -0.25 
C 0.183699 -0.316301 0.093763 -0.353553 0 -0.353553 
C -0.093763 -0.353553 -0.183699 -0.316301 -0.25 -0.25 
C -0.316301 -0.183699 -0.353553 -0.093763 -0.353553 0 
C -0.353553 0.093763 -0.316301 0.183699 -0.25 0.25 
C -0.183699 0.316301 -0.093763 0.353553 0 0.353553 
z
" id="C31_0_51d228f9df"/>
    </defs>
    <g clip-path="url(#peeacd0b11a)">
     <use style="fill:#ff5c00;stroke:#ff5c00;" x="398.232914" xlink:href="#C31_0_51d228f9df" y="258.734792"/>
    </g>
    <g clip-path="url(#peeacd0b11a)">
     <use style="fill:#c50000;stroke:#c50000;" x="398.232914" xlink:href="#C31_0_51d228f9df" y="260.571404"/>
    </g>
    <g clip-path="url(#peeacd0b11a)">
     <use style="fill:#c50000;stroke:#c50000;" x="398.232914" xlink:href="#C31_0_51d228f9df" y="262.408017"/>
    </g>
    <g clip-path="url(#peeacd0b11a)">
     <use style="fill:#ffa500;stroke:#ffa500;" x="398.232914" xlink:href="#C31_0_51d228f9df" y="271.591077"/>
    </g>
    <g clip-path="url(#peeacd0b11a)">
     <use style="fill:#ffa500;stroke:#ffa500;" x="398.232914" xlink:href="#C31_0_51d228f9df" y="264.244629"/>
    </g>
    <g clip-path="url(#peeacd0b11a)">
     <use style="fill:#ff3400;stroke:#ff3400;" x="398.232914" xlink:href="#C31_0_51d228f9df" y="267.917853"/>
    </g>
    <g clip-path="url(#peeacd0b11a)">
     <use style="fill:#ff1000;stroke:#ff1000;" x="398.232914" xlink:href="#C31_0_51d228f9df" y="269.754465"/>
    </g>
    <g clip-path="url(#peeacd0b11a)">
     <use style="fill:#0b0000;stroke:#0b0000;" x="398.232914" xlink:href="#C31_0_51d228f9df" y="266.081241"/>
    </g>
    <g clip-path="url(#peeacd0b11a)">
     <use style="fill:#ffff91;stroke:#ffff91;" x="398.232914" xlink:href="#C31_0_51d228f9df" y="256.89818"/>
    </g>
    <g clip-path="url(#peeacd0b11a)">
     <use style="fill:#ffef00;stroke:#ffef00;" x="398.232914" xlink:href="#C31_0_51d228f9df" y="273.427689"/>
    </g>
    <g clip-path="url(#peeacd0b11a)">
     <use style="fill:#ffff91;stroke:#ffff91;" x="398.232914" xlink:href="#C31_0_51d228f9df" y="280.774137"/>
    </g>
    <g clip-path="url(#peeacd0b11a)">
     <use style="fill:#ffff91;stroke:#ffff91;" x="398.232914" xlink:href="#C31_0_51d228f9df" y="255.061568"/>
    </g>
    <g clip-path="url(#peeacd0b11a)">
     <use style="fill:#ffffc8;stroke:#ffffc8;" x="398.232914" xlink:href="#C31_0_51d228f9df" y="275.264301"/>
    </g>
   </g>
   <g id="PathCollection_51">
    <defs>
     <path d="M 0 0.353553 
C 0.093763 0.353553 0.183699 0.316301 0.25 0.25 
C 0.316301 0.183699 0.353553 0.093763 0.353553 0 
C 0.353553 -0.093763 0.316301 -0.183699 0.25 -0.25 
C 0.183699 -0.316301 0.093763 -0.353553 0 -0.353553 
C -0.093763 -0.353553 -0.183699 -0.316301 -0.25 -0.25 
C -0.316301 -0.183699 -0.353553 -0.093763 -0.353553 0 
C -0.353553 0.093763 -0.316301 0.183699 -0.25 0.25 
C -0.183699 0.316301 -0.093763 0.353553 0 0.353553 
z
" id="m160630fdf0" style="stroke:#008000;"/>
    </defs>
    <g clip-path="url(#peeacd0b11a)">
     <use style="fill:#008000;stroke:#008000;" x="74.087086" xlink:href="#m160630fdf0" y="295.445459"/>
     <use style="fill:#008000;stroke:#008000;" x="80.702307" xlink:href="#m160630fdf0" y="295.438766"/>
     <use style="fill:#008000;stroke:#008000;" x="87.317528" xlink:href="#m160630fdf0" y="295.408783"/>
     <use style="fill:#008000;stroke:#008000;" x="93.932749" xlink:href="#m160630fdf0" y="295.404198"/>
     <use style="fill:#008000;stroke:#008000;" x="100.54797" xlink:href="#m160630fdf0" y="295.384009"/>
     <use style="fill:#008000;stroke:#008000;" x="107.163191" xlink:href="#m160630fdf0" y="295.299097"/>
     <use style="fill:#008000;stroke:#008000;" x="113.778412" xlink:href="#m160630fdf0" y="295.298314"/>
     <use style="fill:#008000;stroke:#008000;" x="120.393633" xlink:href="#m160630fdf0" y="295.287968"/>
     <use style="fill:#008000;stroke:#008000;" x="127.008854" xlink:href="#m160630fdf0" y="295.23304"/>
     <use style="fill:#008000;stroke:#008000;" x="133.624075" xlink:href="#m160630fdf0" y="295.201749"/>
     <use style="fill:#008000;stroke:#008000;" x="140.239296" xlink:href="#m160630fdf0" y="295.184628"/>
     <use style="fill:#008000;stroke:#008000;" x="146.854517" xlink:href="#m160630fdf0" y="295.155375"/>
     <use style="fill:#008000;stroke:#008000;" x="153.469738" xlink:href="#m160630fdf0" y="295.125958"/>
     <use style="fill:#008000;stroke:#008000;" x="160.084959" xlink:href="#m160630fdf0" y="295.114972"/>
     <use style="fill:#008000;stroke:#008000;" x="166.70018" xlink:href="#m160630fdf0" y="295.041605"/>
     <use style="fill:#008000;stroke:#008000;" x="173.315401" xlink:href="#m160630fdf0" y="294.999562"/>
     <use style="fill:#008000;stroke:#008000;" x="179.930622" xlink:href="#m160630fdf0" y="294.998364"/>
     <use style="fill:#008000;stroke:#008000;" x="186.545843" xlink:href="#m160630fdf0" y="294.991822"/>
     <use style="fill:#008000;stroke:#008000;" x="193.161064" xlink:href="#m160630fdf0" y="294.968825"/>
     <use style="fill:#008000;stroke:#008000;" x="199.776285" xlink:href="#m160630fdf0" y="294.926522"/>
     <use style="fill:#008000;stroke:#008000;" x="206.391506" xlink:href="#m160630fdf0" y="294.886334"/>
     <use style="fill:#008000;stroke:#008000;" x="213.006727" xlink:href="#m160630fdf0" y="294.57233"/>
     <use style="fill:#008000;stroke:#008000;" x="219.621948" xlink:href="#m160630fdf0" y="294.477795"/>
     <use style="fill:#008000;stroke:#008000;" x="226.237169" xlink:href="#m160630fdf0" y="294.462925"/>
     <use style="fill:#008000;stroke:#008000;" x="232.85239" xlink:href="#m160630fdf0" y="294.246963"/>
     <use style="fill:#008000;stroke:#008000;" x="239.46761" xlink:href="#m160630fdf0" y="293.853226"/>
     <use style="fill:#008000;stroke:#008000;" x="246.082831" xlink:href="#m160630fdf0" y="293.656983"/>
     <use style="fill:#008000;stroke:#008000;" x="252.698052" xlink:href="#m160630fdf0" y="293.414058"/>
     <use style="fill:#008000;stroke:#008000;" x="259.313273" xlink:href="#m160630fdf0" y="293.35198"/>
     <use style="fill:#008000;stroke:#008000;" x="265.928494" xlink:href="#m160630fdf0" y="293.221311"/>
     <use style="fill:#008000;stroke:#008000;" x="272.543715" xlink:href="#m160630fdf0" y="293.060391"/>
     <use style="fill:#008000;stroke:#008000;" x="279.158936" xlink:href="#m160630fdf0" y="292.958105"/>
     <use style="fill:#008000;stroke:#008000;" x="285.774157" xlink:href="#m160630fdf0" y="292.836096"/>
     <use style="fill:#008000;stroke:#008000;" x="292.389378" xlink:href="#m160630fdf0" y="292.801137"/>
     <use style="fill:#008000;stroke:#008000;" x="299.004599" xlink:href="#m160630fdf0" y="292.799449"/>
     <use style="fill:#008000;stroke:#008000;" x="305.61982" xlink:href="#m160630fdf0" y="292.632678"/>
     <use style="fill:#008000;stroke:#008000;" x="312.235041" xlink:href="#m160630fdf0" y="292.485443"/>
     <use style="fill:#008000;stroke:#008000;" x="318.850262" xlink:href="#m160630fdf0" y="292.070256"/>
     <use style="fill:#008000;stroke:#008000;" x="325.465483" xlink:href="#m160630fdf0" y="292.017377"/>
     <use style="fill:#008000;stroke:#008000;" x="332.080704" xlink:href="#m160630fdf0" y="291.863997"/>
     <use style="fill:#008000;stroke:#008000;" x="338.695925" xlink:href="#m160630fdf0" y="291.730439"/>
     <use style="fill:#008000;stroke:#008000;" x="345.311146" xlink:href="#m160630fdf0" y="291.092472"/>
     <use style="fill:#008000;stroke:#008000;" x="351.926367" xlink:href="#m160630fdf0" y="290.768148"/>
     <use style="fill:#008000;stroke:#008000;" x="358.541588" xlink:href="#m160630fdf0" y="290.756208"/>
     <use style="fill:#008000;stroke:#008000;" x="365.156809" xlink:href="#m160630fdf0" y="290.591464"/>
     <use style="fill:#008000;stroke:#008000;" x="371.77203" xlink:href="#m160630fdf0" y="289.557549"/>
     <use style="fill:#008000;stroke:#008000;" x="378.387251" xlink:href="#m160630fdf0" y="289.519303"/>
     <use style="fill:#008000;stroke:#008000;" x="385.002472" xlink:href="#m160630fdf0" y="286.677468"/>
     <use style="fill:#008000;stroke:#008000;" x="391.617693" xlink:href="#m160630fdf0" y="278.927656"/>
     <use style="fill:#008000;stroke:#008000;" x="398.232914" xlink:href="#m160630fdf0" y="53.610541"/>
    </g>
   </g>
   <g id="matplotlib.axis_1">
    <g id="xtick_1">
     <g id="line2d_1">
      <defs>
       <path d="M 0 0 
L 0 3.5 
" id="m8857522979" style="stroke:#000000;stroke-width:0.8;"/>
      </defs>
      <g>
       <use style="stroke:#000000;stroke-width:0.8;" x="74.087086" xlink:href="#m8857522979" y="307.584"/>
      </g>
     </g>
     <g id="text_1">
      <!-- 0 -->
      <defs>
       <path d="M 31.78125 66.40625 
Q 24.171875 66.40625 20.328125 58.90625 
Q 16.5 51.421875 16.5 36.375 
Q 16.5 21.390625 20.328125 13.890625 
Q 24.171875 6.390625 31.78125 6.390625 
Q 39.453125 6.390625 43.28125 13.890625 
Q 47.125 21.390625 47.125 36.375 
Q 47.125 51.421875 43.28125 58.90625 
Q 39.453125 66.40625 31.78125 66.40625 
z
M 31.78125 74.21875 
Q 44.046875 74.21875 50.515625 64.515625 
Q 56.984375 54.828125 56.984375 36.375 
Q 56.984375 17.96875 50.515625 8.265625 
Q 44.046875 -1.421875 31.78125 -1.421875 
Q 19.53125 -1.421875 13.0625 8.265625 
Q 6.59375 17.96875 6.59375 36.375 
Q 6.59375 54.828125 13.0625 64.515625 
Q 19.53125 74.21875 31.78125 74.21875 
z
" id="DejaVuSans-48"/>
      </defs>
      <g transform="translate(70.905836 322.182437)scale(0.1 -0.1)">
       <use xlink:href="#DejaVuSans-48"/>
      </g>
     </g>
    </g>
    <g id="xtick_2">
     <g id="line2d_2">
      <g>
       <use style="stroke:#000000;stroke-width:0.8;" x="140.239296" xlink:href="#m8857522979" y="307.584"/>
      </g>
     </g>
     <g id="text_2">
      <!-- 10 -->
      <defs>
       <path d="M 12.40625 8.296875 
L 28.515625 8.296875 
L 28.515625 63.921875 
L 10.984375 60.40625 
L 10.984375 69.390625 
L 28.421875 72.90625 
L 38.28125 72.90625 
L 38.28125 8.296875 
L 54.390625 8.296875 
L 54.390625 0 
L 12.40625 0 
z
" id="DejaVuSans-49"/>
      </defs>
      <g transform="translate(133.876796 322.182437)scale(0.1 -0.1)">
       <use xlink:href="#DejaVuSans-49"/>
       <use x="63.623047" xlink:href="#DejaVuSans-48"/>
      </g>
     </g>
    </g>
    <g id="xtick_3">
     <g id="line2d_3">
      <g>
       <use style="stroke:#000000;stroke-width:0.8;" x="206.391506" xlink:href="#m8857522979" y="307.584"/>
      </g>
     </g>
     <g id="text_3">
      <!-- 20 -->
      <defs>
       <path d="M 19.1875 8.296875 
L 53.609375 8.296875 
L 53.609375 0 
L 7.328125 0 
L 7.328125 8.296875 
Q 12.9375 14.109375 22.625 23.890625 
Q 32.328125 33.6875 34.8125 36.53125 
Q 39.546875 41.84375 41.421875 45.53125 
Q 43.3125 49.21875 43.3125 52.78125 
Q 43.3125 58.59375 39.234375 62.25 
Q 35.15625 65.921875 28.609375 65.921875 
Q 23.96875 65.921875 18.8125 64.3125 
Q 13.671875 62.703125 7.8125 59.421875 
L 7.8125 69.390625 
Q 13.765625 71.78125 18.9375 73 
Q 24.125 74.21875 28.421875 74.21875 
Q 39.75 74.21875 46.484375 68.546875 
Q 53.21875 62.890625 53.21875 53.421875 
Q 53.21875 48.921875 51.53125 44.890625 
Q 49.859375 40.875 45.40625 35.40625 
Q 44.1875 33.984375 37.640625 27.21875 
Q 31.109375 20.453125 19.1875 8.296875 
z
" id="DejaVuSans-50"/>
      </defs>
      <g transform="translate(200.029006 322.182437)scale(0.1 -0.1)">
       <use xlink:href="#DejaVuSans-50"/>
       <use x="63.623047" xlink:href="#DejaVuSans-48"/>
      </g>
     </g>
    </g>
    <g id="xtick_4">
     <g id="line2d_4">
      <g>
       <use style="stroke:#000000;stroke-width:0.8;" x="272.543715" xlink:href="#m8857522979" y="307.584"/>
      </g>
     </g>
     <g id="text_4">
      <!-- 30 -->
      <defs>
       <path d="M 40.578125 39.3125 
Q 47.65625 37.796875 51.625 33 
Q 55.609375 28.21875 55.609375 21.1875 
Q 55.609375 10.40625 48.1875 4.484375 
Q 40.765625 -1.421875 27.09375 -1.421875 
Q 22.515625 -1.421875 17.65625 -0.515625 
Q 12.796875 0.390625 7.625 2.203125 
L 7.625 11.71875 
Q 11.71875 9.328125 16.59375 8.109375 
Q 21.484375 6.890625 26.8125 6.890625 
Q 36.078125 6.890625 40.9375 10.546875 
Q 45.796875 14.203125 45.796875 21.1875 
Q 45.796875 27.640625 41.28125 31.265625 
Q 36.765625 34.90625 28.71875 34.90625 
L 20.21875 34.90625 
L 20.21875 43.015625 
L 29.109375 43.015625 
Q 36.375 43.015625 40.234375 45.921875 
Q 44.09375 48.828125 44.09375 54.296875 
Q 44.09375 59.90625 40.109375 62.90625 
Q 36.140625 65.921875 28.71875 65.921875 
Q 24.65625 65.921875 20.015625 65.03125 
Q 15.375 64.15625 9.8125 62.3125 
L 9.8125 71.09375 
Q 15.4375 72.65625 20.34375 73.4375 
Q 25.25 74.21875 29.59375 74.21875 
Q 40.828125 74.21875 47.359375 69.109375 
Q 53.90625 64.015625 53.90625 55.328125 
Q 53.90625 49.265625 50.4375 45.09375 
Q 46.96875 40.921875 40.578125 39.3125 
z
" id="DejaVuSans-51"/>
      </defs>
      <g transform="translate(266.181215 322.182437)scale(0.1 -0.1)">
       <use xlink:href="#DejaVuSans-51"/>
       <use x="63.623047" xlink:href="#DejaVuSans-48"/>
      </g>
     </g>
    </g>
    <g id="xtick_5">
     <g id="line2d_5">
      <g>
       <use style="stroke:#000000;stroke-width:0.8;" x="338.695925" xlink:href="#m8857522979" y="307.584"/>
      </g>
     </g>
     <g id="text_5">
      <!-- 40 -->
      <defs>
       <path d="M 37.796875 64.3125 
L 12.890625 25.390625 
L 37.796875 25.390625 
z
M 35.203125 72.90625 
L 47.609375 72.90625 
L 47.609375 25.390625 
L 58.015625 25.390625 
L 58.015625 17.1875 
L 47.609375 17.1875 
L 47.609375 0 
L 37.796875 0 
L 37.796875 17.1875 
L 4.890625 17.1875 
L 4.890625 26.703125 
z
" id="DejaVuSans-52"/>
      </defs>
      <g transform="translate(332.333425 322.182437)scale(0.1 -0.1)">
       <use xlink:href="#DejaVuSans-52"/>
       <use x="63.623047" xlink:href="#DejaVuSans-48"/>
      </g>
     </g>
    </g>
    <g id="xtick_6">
     <g id="line2d_6">
      <g>
       <use style="stroke:#000000;stroke-width:0.8;" x="404.848135" xlink:href="#m8857522979" y="307.584"/>
      </g>
     </g>
     <g id="text_6">
      <!-- 50 -->
      <defs>
       <path d="M 10.796875 72.90625 
L 49.515625 72.90625 
L 49.515625 64.59375 
L 19.828125 64.59375 
L 19.828125 46.734375 
Q 21.96875 47.46875 24.109375 47.828125 
Q 26.265625 48.1875 28.421875 48.1875 
Q 40.625 48.1875 47.75 41.5 
Q 54.890625 34.8125 54.890625 23.390625 
Q 54.890625 11.625 47.5625 5.09375 
Q 40.234375 -1.421875 26.90625 -1.421875 
Q 22.3125 -1.421875 17.546875 -0.640625 
Q 12.796875 0.140625 7.71875 1.703125 
L 7.71875 11.625 
Q 12.109375 9.234375 16.796875 8.0625 
Q 21.484375 6.890625 26.703125 6.890625 
Q 35.15625 6.890625 40.078125 11.328125 
Q 45.015625 15.765625 45.015625 23.390625 
Q 45.015625 31 40.078125 35.4375 
Q 35.15625 39.890625 26.703125 39.890625 
Q 22.75 39.890625 18.8125 39.015625 
Q 14.890625 38.140625 10.796875 36.28125 
z
" id="DejaVuSans-53"/>
      </defs>
      <g transform="translate(398.485635 322.182437)scale(0.1 -0.1)">
       <use xlink:href="#DejaVuSans-53"/>
       <use x="63.623047" xlink:href="#DejaVuSans-48"/>
      </g>
     </g>
    </g>
   </g>
   <g id="matplotlib.axis_2">
    <g id="ytick_1">
     <g id="line2d_7">
      <defs>
       <path d="M 0 0 
L -3.5 0 
" id="m3f4f75ba8b" style="stroke:#000000;stroke-width:0.8;"/>
      </defs>
      <g>
       <use style="stroke:#000000;stroke-width:0.8;" x="57.6" xlink:href="#m3f4f75ba8b" y="295.467033"/>
      </g>
     </g>
     <g id="text_7">
      <!-- 0 -->
      <g transform="translate(44.2375 299.266252)scale(0.1 -0.1)">
       <use xlink:href="#DejaVuSans-48"/>
      </g>
     </g>
    </g>
    <g id="ytick_2">
     <g id="line2d_8">
      <g>
       <use style="stroke:#000000;stroke-width:0.8;" x="57.6" xlink:href="#m3f4f75ba8b" y="258.734792"/>
      </g>
     </g>
     <g id="text_8">
      <!-- 20 -->
      <g transform="translate(37.875 262.534011)scale(0.1 -0.1)">
       <use xlink:href="#DejaVuSans-50"/>
       <use x="63.623047" xlink:href="#DejaVuSans-48"/>
      </g>
     </g>
    </g>
    <g id="ytick_3">
     <g id="line2d_9">
      <g>
       <use style="stroke:#000000;stroke-width:0.8;" x="57.6" xlink:href="#m3f4f75ba8b" y="222.002552"/>
      </g>
     </g>
     <g id="text_9">
      <!-- 40 -->
      <g transform="translate(37.875 225.80177)scale(0.1 -0.1)">
       <use xlink:href="#DejaVuSans-52"/>
       <use x="63.623047" xlink:href="#DejaVuSans-48"/>
      </g>
     </g>
    </g>
    <g id="ytick_4">
     <g id="line2d_10">
      <g>
       <use style="stroke:#000000;stroke-width:0.8;" x="57.6" xlink:href="#m3f4f75ba8b" y="185.270311"/>
      </g>
     </g>
     <g id="text_10">
      <!-- 60 -->
      <defs>
       <path d="M 33.015625 40.375 
Q 26.375 40.375 22.484375 35.828125 
Q 18.609375 31.296875 18.609375 23.390625 
Q 18.609375 15.53125 22.484375 10.953125 
Q 26.375 6.390625 33.015625 6.390625 
Q 39.65625 6.390625 43.53125 10.953125 
Q 47.40625 15.53125 47.40625 23.390625 
Q 47.40625 31.296875 43.53125 35.828125 
Q 39.65625 40.375 33.015625 40.375 
z
M 52.59375 71.296875 
L 52.59375 62.3125 
Q 48.875 64.0625 45.09375 64.984375 
Q 41.3125 65.921875 37.59375 65.921875 
Q 27.828125 65.921875 22.671875 59.328125 
Q 17.53125 52.734375 16.796875 39.40625 
Q 19.671875 43.65625 24.015625 45.921875 
Q 28.375 48.1875 33.59375 48.1875 
Q 44.578125 48.1875 50.953125 41.515625 
Q 57.328125 34.859375 57.328125 23.390625 
Q 57.328125 12.15625 50.6875 5.359375 
Q 44.046875 -1.421875 33.015625 -1.421875 
Q 20.359375 -1.421875 13.671875 8.265625 
Q 6.984375 17.96875 6.984375 36.375 
Q 6.984375 53.65625 15.1875 63.9375 
Q 23.390625 74.21875 37.203125 74.21875 
Q 40.921875 74.21875 44.703125 73.484375 
Q 48.484375 72.75 52.59375 71.296875 
z
" id="DejaVuSans-54"/>
      </defs>
      <g transform="translate(37.875 189.069529)scale(0.1 -0.1)">
       <use xlink:href="#DejaVuSans-54"/>
       <use x="63.623047" xlink:href="#DejaVuSans-48"/>
      </g>
     </g>
    </g>
    <g id="ytick_5">
     <g id="line2d_11">
      <g>
       <use style="stroke:#000000;stroke-width:0.8;" x="57.6" xlink:href="#m3f4f75ba8b" y="148.53807"/>
      </g>
     </g>
     <g id="text_11">
      <!-- 80 -->
      <defs>
       <path d="M 31.78125 34.625 
Q 24.75 34.625 20.71875 30.859375 
Q 16.703125 27.09375 16.703125 20.515625 
Q 16.703125 13.921875 20.71875 10.15625 
Q 24.75 6.390625 31.78125 6.390625 
Q 38.8125 6.390625 42.859375 10.171875 
Q 46.921875 13.96875 46.921875 20.515625 
Q 46.921875 27.09375 42.890625 30.859375 
Q 38.875 34.625 31.78125 34.625 
z
M 21.921875 38.8125 
Q 15.578125 40.375 12.03125 44.71875 
Q 8.5 49.078125 8.5 55.328125 
Q 8.5 64.0625 14.71875 69.140625 
Q 20.953125 74.21875 31.78125 74.21875 
Q 42.671875 74.21875 48.875 69.140625 
Q 55.078125 64.0625 55.078125 55.328125 
Q 55.078125 49.078125 51.53125 44.71875 
Q 48 40.375 41.703125 38.8125 
Q 48.828125 37.15625 52.796875 32.3125 
Q 56.78125 27.484375 56.78125 20.515625 
Q 56.78125 9.90625 50.3125 4.234375 
Q 43.84375 -1.421875 31.78125 -1.421875 
Q 19.734375 -1.421875 13.25 4.234375 
Q 6.78125 9.90625 6.78125 20.515625 
Q 6.78125 27.484375 10.78125 32.3125 
Q 14.796875 37.15625 21.921875 38.8125 
z
M 18.3125 54.390625 
Q 18.3125 48.734375 21.84375 45.5625 
Q 25.390625 42.390625 31.78125 42.390625 
Q 38.140625 42.390625 41.71875 45.5625 
Q 45.3125 48.734375 45.3125 54.390625 
Q 45.3125 60.0625 41.71875 63.234375 
Q 38.140625 66.40625 31.78125 66.40625 
Q 25.390625 66.40625 21.84375 63.234375 
Q 18.3125 60.0625 18.3125 54.390625 
z
" id="DejaVuSans-56"/>
      </defs>
      <g transform="translate(37.875 152.337288)scale(0.1 -0.1)">
       <use xlink:href="#DejaVuSans-56"/>
       <use x="63.623047" xlink:href="#DejaVuSans-48"/>
      </g>
     </g>
    </g>
    <g id="ytick_6">
     <g id="line2d_12">
      <g>
       <use style="stroke:#000000;stroke-width:0.8;" x="57.6" xlink:href="#m3f4f75ba8b" y="111.805829"/>
      </g>
     </g>
     <g id="text_12">
      <!-- 100 -->
      <g transform="translate(31.5125 115.605047)scale(0.1 -0.1)">
       <use xlink:href="#DejaVuSans-49"/>
       <use x="63.623047" xlink:href="#DejaVuSans-48"/>
       <use x="127.246094" xlink:href="#DejaVuSans-48"/>
      </g>
     </g>
    </g>
    <g id="ytick_7">
     <g id="line2d_13">
      <g>
       <use style="stroke:#000000;stroke-width:0.8;" x="57.6" xlink:href="#m3f4f75ba8b" y="75.073588"/>
      </g>
     </g>
     <g id="text_13">
      <!-- 120 -->
      <g transform="translate(31.5125 78.872807)scale(0.1 -0.1)">
       <use xlink:href="#DejaVuSans-49"/>
       <use x="63.623047" xlink:href="#DejaVuSans-50"/>
       <use x="127.246094" xlink:href="#DejaVuSans-48"/>
      </g>
     </g>
    </g>
   </g>
   <g id="patch_3">
    <path d="M 57.6 307.584 
L 57.6 41.472 
" style="fill:none;stroke:#000000;stroke-linecap:square;stroke-linejoin:miter;stroke-width:0.8;"/>
   </g>
   <g id="patch_4">
    <path d="M 414.72 307.584 
L 414.72 41.472 
" style="fill:none;stroke:#000000;stroke-linecap:square;stroke-linejoin:miter;stroke-width:0.8;"/>
   </g>
   <g id="patch_5">
    <path d="M 57.6 307.584 
L 414.72 307.584 
" style="fill:none;stroke:#000000;stroke-linecap:square;stroke-linejoin:miter;stroke-width:0.8;"/>
   </g>
   <g id="patch_6">
    <path d="M 57.6 41.472 
L 414.72 41.472 
" style="fill:none;stroke:#000000;stroke-linecap:square;stroke-linejoin:miter;stroke-width:0.8;"/>
   </g>
   <g id="legend_1">
    <g id="patch_7">
     <path d="M 64.6 64.150125 
L 135.525 64.150125 
Q 137.525 64.150125 137.525 62.150125 
L 137.525 48.472 
Q 137.525 46.472 135.525 46.472 
L 64.6 46.472 
Q 62.6 46.472 62.6 48.472 
L 62.6 62.150125 
Q 62.6 64.150125 64.6 64.150125 
z
" style="fill:#ffffff;opacity:0.8;stroke:#cccccc;stroke-linejoin:miter;"/>
    </g>
    <g id="PathCollection_52">
     <g>
      <use style="fill:#008000;stroke:#008000;" x="76.6" xlink:href="#m160630fdf0" y="55.445438"/>
     </g>
    </g>
    <g id="text_14">
     <!-- weights -->
     <defs>
      <path d="M 4.203125 54.6875 
L 13.1875 54.6875 
L 24.421875 12.015625 
L 35.59375 54.6875 
L 46.1875 54.6875 
L 57.421875 12.015625 
L 68.609375 54.6875 
L 77.59375 54.6875 
L 63.28125 0 
L 52.6875 0 
L 40.921875 44.828125 
L 29.109375 0 
L 18.5 0 
z
" id="DejaVuSans-119"/>
      <path d="M 56.203125 29.59375 
L 56.203125 25.203125 
L 14.890625 25.203125 
Q 15.484375 15.921875 20.484375 11.0625 
Q 25.484375 6.203125 34.421875 6.203125 
Q 39.59375 6.203125 44.453125 7.46875 
Q 49.3125 8.734375 54.109375 11.28125 
L 54.109375 2.78125 
Q 49.265625 0.734375 44.1875 -0.34375 
Q 39.109375 -1.421875 33.890625 -1.421875 
Q 20.796875 -1.421875 13.15625 6.1875 
Q 5.515625 13.8125 5.515625 26.8125 
Q 5.515625 40.234375 12.765625 48.109375 
Q 20.015625 56 32.328125 56 
Q 43.359375 56 49.78125 48.890625 
Q 56.203125 41.796875 56.203125 29.59375 
z
M 47.21875 32.234375 
Q 47.125 39.59375 43.09375 43.984375 
Q 39.0625 48.390625 32.421875 48.390625 
Q 24.90625 48.390625 20.390625 44.140625 
Q 15.875 39.890625 15.1875 32.171875 
z
" id="DejaVuSans-101"/>
      <path d="M 9.421875 54.6875 
L 18.40625 54.6875 
L 18.40625 0 
L 9.421875 0 
z
M 9.421875 75.984375 
L 18.40625 75.984375 
L 18.40625 64.59375 
L 9.421875 64.59375 
z
" id="DejaVuSans-105"/>
      <path d="M 45.40625 27.984375 
Q 45.40625 37.75 41.375 43.109375 
Q 37.359375 48.484375 30.078125 48.484375 
Q 22.859375 48.484375 18.828125 43.109375 
Q 14.796875 37.75 14.796875 27.984375 
Q 14.796875 18.265625 18.828125 12.890625 
Q 22.859375 7.515625 30.078125 7.515625 
Q 37.359375 7.515625 41.375 12.890625 
Q 45.40625 18.265625 45.40625 27.984375 
z
M 54.390625 6.78125 
Q 54.390625 -7.171875 48.1875 -13.984375 
Q 42 -20.796875 29.203125 -20.796875 
Q 24.46875 -20.796875 20.265625 -20.09375 
Q 16.0625 -19.390625 12.109375 -17.921875 
L 12.109375 -9.1875 
Q 16.0625 -11.328125 19.921875 -12.34375 
Q 23.78125 -13.375 27.78125 -13.375 
Q 36.625 -13.375 41.015625 -8.765625 
Q 45.40625 -4.15625 45.40625 5.171875 
L 45.40625 9.625 
Q 42.625 4.78125 38.28125 2.390625 
Q 33.9375 0 27.875 0 
Q 17.828125 0 11.671875 7.65625 
Q 5.515625 15.328125 5.515625 27.984375 
Q 5.515625 40.671875 11.671875 48.328125 
Q 17.828125 56 27.875 56 
Q 33.9375 56 38.28125 53.609375 
Q 42.625 51.21875 45.40625 46.390625 
L 45.40625 54.6875 
L 54.390625 54.6875 
z
" id="DejaVuSans-103"/>
      <path d="M 54.890625 33.015625 
L 54.890625 0 
L 45.90625 0 
L 45.90625 32.71875 
Q 45.90625 40.484375 42.875 44.328125 
Q 39.84375 48.1875 33.796875 48.1875 
Q 26.515625 48.1875 22.3125 43.546875 
Q 18.109375 38.921875 18.109375 30.90625 
L 18.109375 0 
L 9.078125 0 
L 9.078125 75.984375 
L 18.109375 75.984375 
L 18.109375 46.1875 
Q 21.34375 51.125 25.703125 53.5625 
Q 30.078125 56 35.796875 56 
Q 45.21875 56 50.046875 50.171875 
Q 54.890625 44.34375 54.890625 33.015625 
z
" id="DejaVuSans-104"/>
      <path d="M 18.3125 70.21875 
L 18.3125 54.6875 
L 36.8125 54.6875 
L 36.8125 47.703125 
L 18.3125 47.703125 
L 18.3125 18.015625 
Q 18.3125 11.328125 20.140625 9.421875 
Q 21.96875 7.515625 27.59375 7.515625 
L 36.8125 7.515625 
L 36.8125 0 
L 27.59375 0 
Q 17.1875 0 13.234375 3.875 
Q 9.28125 7.765625 9.28125 18.015625 
L 9.28125 47.703125 
L 2.6875 47.703125 
L 2.6875 54.6875 
L 9.28125 54.6875 
L 9.28125 70.21875 
z
" id="DejaVuSans-116"/>
      <path d="M 44.28125 53.078125 
L 44.28125 44.578125 
Q 40.484375 46.53125 36.375 47.5 
Q 32.28125 48.484375 27.875 48.484375 
Q 21.1875 48.484375 17.84375 46.4375 
Q 14.5 44.390625 14.5 40.28125 
Q 14.5 37.15625 16.890625 35.375 
Q 19.28125 33.59375 26.515625 31.984375 
L 29.59375 31.296875 
Q 39.15625 29.25 43.1875 25.515625 
Q 47.21875 21.78125 47.21875 15.09375 
Q 47.21875 7.46875 41.1875 3.015625 
Q 35.15625 -1.421875 24.609375 -1.421875 
Q 20.21875 -1.421875 15.453125 -0.5625 
Q 10.6875 0.296875 5.421875 2 
L 5.421875 11.28125 
Q 10.40625 8.6875 15.234375 7.390625 
Q 20.0625 6.109375 24.8125 6.109375 
Q 31.15625 6.109375 34.5625 8.28125 
Q 37.984375 10.453125 37.984375 14.40625 
Q 37.984375 18.0625 35.515625 20.015625 
Q 33.0625 21.96875 24.703125 23.78125 
L 21.578125 24.515625 
Q 13.234375 26.265625 9.515625 29.90625 
Q 5.8125 33.546875 5.8125 39.890625 
Q 5.8125 47.609375 11.28125 51.796875 
Q 16.75 56 26.8125 56 
Q 31.78125 56 36.171875 55.265625 
Q 40.578125 54.546875 44.28125 53.078125 
z
" id="DejaVuSans-115"/>
     </defs>
     <g transform="translate(94.6 58.070438)scale(0.1 -0.1)">
      <use xlink:href="#DejaVuSans-119"/>
      <use x="81.787109" xlink:href="#DejaVuSans-101"/>
      <use x="143.310547" xlink:href="#DejaVuSans-105"/>
      <use x="171.09375" xlink:href="#DejaVuSans-103"/>
      <use x="234.570312" xlink:href="#DejaVuSans-104"/>
      <use x="297.949219" xlink:href="#DejaVuSans-116"/>
      <use x="337.158203" xlink:href="#DejaVuSans-115"/>
     </g>
    </g>
   </g>
  </g>
 </g>
 <defs>
  <clipPath id="peeacd0b11a">
   <rect height="266.112" width="357.12" x="57.6" y="41.472"/>
  </clipPath>
 </defs>
</svg>
